<svg width="1440" height="576" viewBox="0 0 1440 576" fill="none" xmlns="http://www.w3.org/2000/svg">
<path d="M-21.5312 53.67C33.4099 81.9775 82.0862 121.611 121.463 170.099C179.497 242.451 176.34 286.778 232.081 328.11C286.256 368.25 360.613 379.311 420.94 364.147C503.256 343.44 506.979 287.083 612.498 197.82C674.552 145.372 790.917 46.906 928.164 56.4421C997.502 61.2656 1066.44 93.2559 1130.51 122.973C1209.05 159.399 1220.33 178.11 1262.72 186.732C1313.06 196.989 1390.9 189.698 1502.84 98.0239" stroke="#3A3A3A" stroke-opacity="0.3" stroke-width="0.98893" stroke-miterlimit="10"/>
<path d="M-23.0674 64.0377C26.4398 88.9061 71.0704 122.923 108.595 164.388C112.183 168.408 115.772 172.538 119.387 176.78C178.014 246.859 175.694 289.189 230.733 329.496C254.725 347.133 281.889 359.694 310.648 366.448C331.247 371.266 352.374 373.28 373.484 372.436C389.271 371.796 404.937 369.332 420.187 365.09C437.18 360.602 453.334 353.259 467.995 343.356C494.975 325.06 513.861 300.361 542.919 269.369C564.807 246.044 588.62 224.711 614.092 205.61C627.582 195.353 643.338 182.989 661.55 170.321C710.275 136.335 772.626 99.4099 847.442 86.6582C872.828 82.2074 898.623 80.7195 924.334 82.2228C928.274 82.4445 932.186 82.7772 936.044 83.1653C974.247 86.9631 1010.64 97.0259 1047.82 110.387C1075.64 120.256 1101.94 132.564 1128.03 144.124C1138.96 149.059 1148.73 153.549 1157.55 157.763C1210.83 183.294 1224.68 196.989 1261.07 202.976C1288.73 207.523 1324.5 206.719 1369.91 190.529C1407.14 177.279 1451.23 153.411 1502.84 113.936" stroke="#3A3A3A" stroke-opacity="0.3" stroke-width="0.98893" stroke-miterlimit="10"/>
<path d="M-24.4971 74.4611C24.4973 98.3897 68.8532 131.265 106.41 171.485C110.007 175.366 113.604 179.34 117.202 183.405C176.558 251.239 175.128 291.518 229.411 330.882C253.46 348.75 280.711 361.554 309.596 368.555C330.317 373.405 351.582 375.345 372.81 374.321C388.62 373.493 404.275 370.701 419.431 366.005C436.34 360.983 452.406 353.347 467.078 343.357C495.137 324.506 515.048 300.611 543.782 271.67C565.773 249.704 589.862 230.07 615.684 213.067C629.174 203.975 644.579 192.831 662.602 181.798C710.626 152.385 769.173 121.532 843.233 111.469C868.82 107.847 894.677 106.659 920.477 107.921C924.47 108.142 928.409 108.42 932.294 108.78C971.145 112.273 1006.62 120.894 1044.56 132.786C1073.13 141.768 1099.19 153.855 1125.5 165.248C1136.42 169.961 1146.3 174.257 1155.34 178.277C1208.78 202.145 1223.11 214.73 1259.37 219.166C1287 222.548 1322.51 220.69 1368.16 204.307C1405.44 190.89 1450.09 167.466 1502.84 129.903" stroke="#3A3A3A" stroke-opacity="0.3" stroke-width="0.98893" stroke-miterlimit="10"/>
<path d="M-26.1973 84.7175C22.3965 107.74 66.5714 139.542 104.224 178.609C107.812 182.379 111.428 186.205 115.016 190.114C175.154 255.674 174.48 293.957 228.035 332.268C253.396 350.398 278.38 363.454 308.462 370.689C329.322 375.579 350.745 377.445 372.108 376.234C387.948 375.21 403.593 372.079 418.649 366.919C435.482 361.368 451.481 353.438 466.187 343.356C495.272 323.951 516.181 300.915 544.618 274.053C566.732 253.434 591.116 235.543 617.275 220.745C630.9 212.817 645.847 202.893 663.654 193.496C711.219 168.38 765.719 143.791 839.024 136.362C864.812 133.579 890.761 132.699 916.672 133.729C920.692 133.923 924.766 134.172 928.543 134.505C966.663 137.713 1004.39 144.684 1041.21 155.323C1070.54 163.39 1096.39 175.366 1123.01 186.454C1133.94 191.001 1143.9 195.076 1153.18 198.901C1206.76 221.078 1221.6 232.499 1257.7 235.465C1285.33 237.739 1320.64 234.745 1366.46 218.167C1403.82 204.75 1448.96 181.492 1502.84 145.704" stroke="#3A3A3A" stroke-opacity="0.3" stroke-width="0.98893" stroke-miterlimit="10"/>
<path d="M-27.7627 95.0576C20.3615 117.185 64.3034 147.873 102.038 185.706C105.626 189.365 109.269 193.024 112.83 196.794C173.616 260.193 173.886 296.23 226.685 333.682C252.613 352.005 276.76 365.423 307.383 372.824C328.362 377.762 349.928 379.545 371.406 378.119C387.319 376.933 402.992 373.471 417.974 367.834C434.694 361.799 450.61 353.631 465.35 343.523C495.46 323.536 517.503 301.442 545.535 276.41C565.311 258.779 588.703 243.366 618.947 228.397C632.68 221.577 647.303 212.845 664.813 205.111C712.19 184.181 762.373 166.024 834.787 161.228C860.74 159.261 886.775 158.678 912.786 159.482C916.86 159.648 920.88 159.87 924.738 160.147C962.928 162.72 1000.84 168.618 1038.05 177.778C1068.19 184.93 1093.66 196.822 1120.56 207.523C1131.35 211.902 1141.58 215.839 1151.07 219.415C1204.76 240.04 1220.12 250.158 1256.11 251.627C1283.73 252.764 1318.81 248.689 1364.81 231.945C1402.18 218.334 1447.85 195.492 1502.84 161.533" stroke="#3A3A3A" stroke-opacity="0.3" stroke-width="0.98893" stroke-miterlimit="10"/>
<path d="M-29.2998 105.398C18.3437 126.645 62.0417 156.218 99.8533 192.803C103.442 196.323 107.084 199.816 110.645 203.42C172.16 264.407 173.266 298.642 225.283 335.04C251.778 353.586 275.088 367.363 306.223 374.931C327.342 379.911 349.069 381.612 370.678 379.976C386.594 378.619 402.225 374.835 417.057 368.749C433.677 362.204 449.525 353.751 464.299 343.551C495.461 323.037 518.663 301.969 546.237 278.766C566.607 261.69 590.511 248.273 620.405 236.02C634.3 230.309 648.599 222.825 665.731 216.615C713.297 199.705 758.866 188.146 830.525 185.928C855.428 185.152 882.974 184.181 908.902 185.096C913.03 185.235 916.996 185.429 920.935 185.651C959.134 187.586 997.144 192.404 1034.66 200.066C1065.55 206.303 1090.83 218.112 1118.02 228.591C1128.95 232.804 1139.12 236.436 1148.86 239.873C1202.66 259.084 1218.61 268.509 1254.35 267.927C1281.98 267.484 1316.84 262.743 1363 245.75C1400.4 231.89 1446.64 209.519 1502.73 177.417" stroke="#3A3A3A" stroke-opacity="0.3" stroke-width="0.98893" stroke-miterlimit="10"/>
<path d="M-30.8652 115.71C16.3064 136.099 59.7679 164.566 97.6674 199.899C101.256 203.281 104.925 206.636 108.459 210.073C170.729 268.842 172.672 300.971 223.907 336.426C250.887 355.138 273.415 369.304 305.116 377.065C326.335 382.057 348.173 383.674 369.868 381.861C385.837 380.315 401.469 376.199 416.193 369.664C432.678 362.58 448.446 353.852 463.273 343.606C495.46 322.51 519.931 302.357 546.911 281.095C567.901 264.462 592.345 253.207 621.834 243.643C635.945 239.042 651.296 236.38 666.621 228.369C716.345 226.234 755.466 206.192 826.127 210.905C851.083 212.596 879.061 210.239 904.881 210.905C909.063 211.043 913.11 211.182 916.995 211.376C958.598 213.399 990.435 215.756 1031.23 222.464C1062.88 227.759 1087.89 239.513 1115.38 249.659C1126.17 253.706 1136.56 257.144 1146.54 260.387C1200.37 277.907 1216.88 285.336 1252.57 283.95C1280.23 282.813 1314.87 276.548 1361.19 259.417C1398.64 245.556 1445.37 223.379 1502.62 193.135" stroke="#3A3A3A" stroke-opacity="0.3" stroke-width="0.98893" stroke-miterlimit="10"/>
<path d="M-32.4297 126.05C14.2647 145.579 57.4874 172.922 95.4824 206.968C99.0977 210.239 102.767 213.427 106.274 216.698C169.435 273.194 172.186 303.272 222.639 337.812C250.294 356.718 271.877 371.244 304.092 379.2C325.494 384.254 347.542 385.779 369.41 383.719C387.19 382.194 401.786 376.705 415.654 370.551C432.016 362.943 447.728 353.939 462.626 343.634C495.838 321.983 521.685 302.884 548.045 283.423C569.629 267.428 594.72 258.197 623.589 251.239C637.996 247.774 652.997 246.97 667.863 239.984C717.587 243.921 752.121 232.915 822.08 235.715C847.172 236.741 875.474 236.131 901.212 236.713C905.421 236.713 909.522 236.907 913.38 237.046C955.685 238.681 986.604 239.513 1028.13 245.085C1060.5 249.465 1085.27 261.135 1113.06 270.976C1123.85 274.857 1134.32 278.073 1144.54 281.122C1198.5 297.145 1215.53 303.299 1251.09 300.333C1278.74 298.088 1313.14 290.742 1359.66 273.416C1397.13 259.555 1444.4 237.6 1502.79 209.214" stroke="#3A3A3A" stroke-opacity="0.3" stroke-width="0.98893" stroke-miterlimit="10"/>
<path d="M-33.9688 136.362C12.2269 155.061 55.1966 181.269 93.2958 213.982C96.9111 217.142 100.607 220.191 104.25 223.268C168.057 277.491 171.7 305.489 221.289 339.087C249.51 358.187 270.257 373.101 303.011 381.196C324.516 386.306 346.69 387.767 368.653 385.52C386.676 383.829 401.029 377.897 414.816 371.383C431.841 363.343 445.843 353.918 461.626 343.661C495.891 321.484 526.891 308.151 548.826 285.752C573.674 274.857 596.904 254.067 625.206 258.862C639.937 261.357 654.614 257.532 668.968 251.599C718.719 261.579 748.855 255.286 817.924 260.553C843.123 262.466 871.884 262.022 897.407 262.438C901.697 262.438 905.798 262.438 909.683 262.688C952.635 263.935 982.664 263.159 1024.89 267.539C1058.1 270.949 1082.54 282.564 1110.6 292.1C1121.39 295.815 1131.97 298.836 1142.41 301.664C1196.37 316.217 1214.07 320.902 1249.5 316.55C1277.18 313.14 1311.36 304.713 1358.01 287.193C1395.54 273.166 1443.21 251.599 1502.84 225.07" stroke="#3A3A3A" stroke-opacity="0.3" stroke-width="0.98893" stroke-miterlimit="10"/>
<path d="M-35.5332 146.675C10.1904 164.582 52.9179 189.704 91.1108 221.134C94.7261 224.155 98.4224 226.927 102.092 229.949C166.844 281.899 171.079 307.818 219.94 340.501C248.755 359.767 268.639 375.069 301.905 383.358C323.546 388.492 345.87 389.869 367.952 387.433C386.218 385.576 400.328 379.117 414.061 372.325C430.762 364.009 444.602 354.14 460.71 343.689C495.999 320.902 528.618 309.148 549.743 288.053C575.455 278.35 600.142 258.89 626.879 266.458C641.502 270.588 656.26 268.121 670.047 263.214C719.825 279.237 745.591 277.713 813.743 285.391C839.05 288.164 868.026 287.942 893.603 288.164H905.933C949.587 288.995 978.779 286.694 1021.65 289.827C1055.65 292.294 1079.79 303.881 1108.15 313.085C1118.94 316.633 1129.6 319.433 1140.28 322.039C1194.24 335.179 1212.59 338.422 1247.88 332.628C1275.56 328.054 1309.53 318.546 1356.34 300.86C1393.89 286.694 1442.21 265.488 1502.87 240.788" stroke="#3A3A3A" stroke-opacity="0.3" stroke-width="0.98893" stroke-miterlimit="10"/>
<path d="M-37.0977 156.959C8.09906 174.106 50.5416 198.111 88.8179 228.175C92.4602 230.947 96.1564 233.719 99.8257 236.491C165.279 286.14 170.432 309.98 218.538 341.832C247.946 361.237 267.102 376.955 300.773 385.41C322.534 390.609 345.005 391.913 367.197 389.263C385.732 387.239 399.573 380.42 413.225 373.185C429.602 364.425 443.308 354.306 459.739 343.689C496.081 320.348 530.291 310.119 550.445 290.354C577.048 281.815 601.707 278.766 628.336 274.026C643.607 277.02 657.691 278.655 671.019 274.802C720.797 296.979 742.138 300.139 809.426 310.147C834.841 313.944 864.195 314.138 889.665 313.833C894.035 313.833 898.217 313.833 902.075 313.833C946.43 313.251 974.651 310.368 1018.28 312.309C1053.08 313.833 1076.91 325.366 1105.59 334.264C1116.38 337.618 1127.17 340.252 1137.96 342.58C1191.92 354.306 1210.81 356.053 1246.04 348.818C1273.75 343.107 1307.48 332.518 1354.5 314.637C1392.09 300.361 1440.84 279.487 1502.7 256.617" stroke="#3A3A3A" stroke-opacity="0.3" stroke-width="0.98893" stroke-miterlimit="10"/>
<path d="M-38.6348 167.271C6.11614 183.647 48.3477 206.538 86.7682 235.244C90.3835 238.016 94.1067 240.594 97.776 243.2C164.093 290.52 170.001 312.309 217.243 343.19C247.245 362.817 265.403 378.895 299.721 387.544C321.669 392.805 344.352 394.016 366.712 391.12C385.598 388.93 399.223 381.695 412.578 374.099C428.766 364.979 442.256 354.528 458.957 343.606C496.297 319.71 532.154 311.006 551.39 292.571C578.856 285.225 603.893 284.255 630.037 281.483C645.497 285.918 659.364 289.078 672.207 286.251C721.985 314.388 738.928 322.482 805.326 334.818C830.849 339.559 860.554 339.891 885.942 339.42C890.367 339.42 894.549 339.42 898.434 339.42C943.436 338.394 970.794 333.876 1015.12 334.68C1050.68 335.262 1074.24 346.766 1103.21 355.332C1114 358.548 1124.8 360.876 1135.99 363.122C1189.95 373.489 1209.59 373.711 1244.59 365.035C1272.3 358.16 1305.8 346.517 1352.99 328.443C1390.6 314.055 1440 293.514 1502.89 272.501" stroke="#3A3A3A" stroke-opacity="0.3" stroke-width="0.98893" stroke-miterlimit="10"/>
<path d="M-40.1992 177.556C4.07106 193.202 46.0534 214.989 84.5832 242.313C88.2255 245.085 91.9487 247.358 95.618 249.825C162.825 294.789 169.489 314.527 215.895 344.549C246.49 364.314 263.784 380.78 298.642 389.623C320.671 394.918 343.452 396.054 365.876 392.978C384.762 390.594 398.468 382.942 411.742 374.959C427.499 365.478 440.881 354.695 457.986 343.745C496.379 319.267 533.827 312.115 552.173 294.983C580.529 288.801 605.836 289.744 631.575 289.245C647.197 295.094 660.875 299.807 673.205 298.005C723.01 332.213 735.529 345.131 801.063 359.795C826.694 365.506 856.75 365.561 882.003 365.34C886.482 365.34 890.691 365.34 894.576 365.34C940.28 363.87 966.747 358.991 1011.78 357.411C1048.09 356.136 1071.38 368.5 1100.65 376.816C1111.55 379.836 1122.6 382.242 1133.75 384.024C1187.71 393.061 1208 391.73 1242.86 381.612C1270.6 373.573 1303.86 360.876 1351.21 342.608C1388.98 328.11 1438.79 307.873 1502.81 288.718" stroke="#3A3A3A" stroke-opacity="0.3" stroke-width="0.98893" stroke-miterlimit="10"/>
<path d="M-41.7646 181.908C2.03076 196.887 43.7625 217.609 82.3972 243.56C86.0395 246.055 89.7897 248.328 93.486 250.629C161.556 293.237 169.03 310.923 214.545 340.058C245.734 360.017 262.165 376.872 297.536 385.881C319.697 391.228 342.634 392.29 365.174 389.013C384.438 386.435 397.847 378.396 411.04 370.024C426.392 359.989 439.558 348.901 457.068 337.812C496.486 312.863 535.58 307.125 553.009 291.352C582.228 286.334 607.832 289.273 633.166 290.88C648.95 298.171 662.413 304.408 674.257 303.66C724.089 343.911 732.21 361.874 796.827 378.507C822.593 385.188 852.999 385.326 878.199 384.911L890.825 384.661C937.231 383.83 962.781 375.236 1008.51 373.573C1045.66 372.187 1068.6 383.691 1098.17 391.591C1109.19 394.455 1120.36 396.667 1131.62 398.217C1185.45 405.923 1206.52 402.985 1241.21 391.453C1268.98 382.249 1302.03 368.5 1349.54 350.037C1387.31 335.428 1437.68 315.525 1502.84 298.226" stroke="#3A3A3A" stroke-opacity="0.3" stroke-width="0.98893" stroke-miterlimit="10"/>
<path d="M-43.3838 183.655C-0.0789026 197.873 41.3936 217.42 80.1305 241.869C83.7998 244.253 87.55 246.36 91.2463 248.495C160.315 288.801 168.436 304.547 213.196 332.712C245.005 352.81 260.546 370.08 296.456 379.283C318.76 384.638 341.853 385.579 364.499 382.055C383.979 379.283 397.226 370.967 410.231 362.096C425.312 351.923 438.398 340.446 456.097 329.163C496.566 303.577 537.252 299.446 553.791 285.004C583.901 281.15 610.746 281.76 634.731 289.827C651.917 295.621 663.95 306.46 675.201 306.46C725.033 352.754 728.729 375.763 792.483 394.641C818.33 402.347 849.141 402.541 874.205 401.959C878.792 401.959 883.055 401.738 886.913 401.627C934.02 400.351 958.652 390.178 1005.11 387.295C1043.02 384.938 1065.68 396.443 1095.55 403.928C1106.67 406.671 1117.96 408.689 1129.33 409.971C1183.13 416.402 1204.87 411.828 1239.43 398.882C1267.2 388.487 1300.03 373.684 1347.7 355.055C1385.48 340.335 1436.41 320.764 1502.7 305.157" stroke="#3A3A3A" stroke-opacity="0.3" stroke-width="0.98893" stroke-miterlimit="10"/>
<path d="M-44.8682 185.346C-2.03613 198.89 39.1853 217.319 78.0256 240.289C81.7219 242.534 85.4991 244.475 89.1684 246.471C159.1 284.283 167.95 297.921 211.846 325.365C244.222 345.602 258.899 363.288 295.484 372.658C317.904 378.172 341.16 379.114 363.932 375.43C383.682 372.464 396.74 363.648 409.583 354.528C424.368 344.022 437.291 332.157 455.449 320.708C496.917 294.567 539.221 291.989 554.897 278.849C585.843 276.077 613.227 279.154 636.538 288.967C654.048 296.341 665.73 308.372 676.576 309.731C726.408 362.096 725.68 390.122 788.597 411.135C814.552 419.867 845.66 420.089 870.697 419.451L883.486 419.008C931.267 417.317 955.01 405.535 1002.2 401.488C1040.91 398.134 1063.25 409.804 1093.44 416.873C1104.67 419.52 1116.07 421.372 1127.55 422.417C1181.29 427.601 1203.74 421.364 1238.16 407.004C1265.93 395.445 1298.52 379.588 1346.38 360.765C1397.05 340.055 1449.4 324.024 1502.84 312.863" stroke="#3A3A3A" stroke-opacity="0.3" stroke-width="0.98893" stroke-miterlimit="10"/>
<path d="M-46.4326 185.9C-4.06455 198.837 36.906 216.188 75.8406 237.684C79.5639 239.79 83.3411 241.592 87.0103 243.422C157.887 278.822 167.438 290.548 210.498 317.049C243.521 337.424 257.281 355.526 294.27 365.09C316.833 370.629 340.25 371.44 363.123 367.474C383.089 364.314 395.985 355.111 408.693 345.602C423.154 334.763 435.915 322.538 454.343 310.923C496.863 284.228 540.679 283.202 555.545 271.365C587.381 269.868 615.197 275.246 637.941 286.75C655.748 295.76 667.107 309.177 677.44 311.533C727.299 369.941 722.119 403.013 784.173 426.16C810.236 435.918 841.721 436.14 866.651 435.28C871.318 435.114 875.662 434.892 879.52 434.726C928.084 432.591 950.828 419.257 998.691 414.018C1038.16 409.694 1060.23 421.253 1090.72 428.101C1102.06 430.59 1113.57 432.221 1125.15 432.979C1178.86 436.944 1201.98 428.988 1236.28 413.242C1264.04 400.49 1296.41 383.608 1344.44 364.564C1395.55 343.741 1448.64 328.458 1502.84 318.962" stroke="#3A3A3A" stroke-opacity="0.3" stroke-width="0.98893" stroke-miterlimit="10"/>
<path d="M-47.998 184.32C-6.0859 196.638 34.6362 212.886 73.6547 232.86C77.3779 234.828 81.1821 236.492 84.8513 238.183C156.699 271.088 167.059 280.735 209.148 306.515C242.792 327.029 255.662 345.574 293.191 355.277C315.878 360.879 339.445 361.615 362.421 357.439C382.629 354.057 395.364 344.493 407.91 334.597C422.074 323.508 434.674 310.84 453.425 299.058C496.97 271.808 542.459 272.28 556.38 261.801C589.08 261.468 617.274 269.286 639.533 282.481C657.555 293.181 668.671 307.874 678.519 311.256C728.378 375.735 718.719 413.824 779.963 439.078C806.08 449.889 837.97 450.167 862.819 449.113C867.513 448.919 871.884 448.67 875.742 448.476C924.927 445.925 946.781 430.956 995.345 424.552C1035.6 419.23 1057.4 430.817 1088.13 437.332C1099.6 439.674 1111.22 441.11 1122.91 441.628C1176.6 444.401 1200.37 434.698 1234.52 417.566C1262.28 403.706 1294.47 385.687 1342.66 366.476C1394.14 345.443 1447.89 330.822 1502.76 322.926" stroke="#3A3A3A" stroke-opacity="0.3" stroke-width="0.98893" stroke-miterlimit="10"/>
<path d="M-49.5352 182.74C-8.0822 194.489 32.3834 209.646 71.47 228.064C75.2202 229.894 79.0244 231.363 82.6937 232.915C155.54 263.409 166.332 271.032 207.8 295.981C242.037 316.606 254.044 335.595 292.085 345.491C314.905 351.175 338.638 351.827 361.721 347.404C382.171 343.772 394.744 333.904 407.155 323.591C421.023 312.087 433.433 299.141 452.508 287.193C497.106 259.472 544.24 261.357 557.218 252.209C587.001 252.573 616.079 261.578 641.098 278.184C659.31 290.603 670.237 306.543 679.572 310.978C729.458 381.501 715.293 424.635 775.755 451.996C801.926 463.888 834.221 464.11 858.962 462.946C863.737 462.724 868.108 462.447 871.993 462.197C921.825 459.148 942.869 442.792 992.135 435.086C1033.12 428.793 1054.7 440.381 1085.73 446.563C1096.52 448.697 1107.91 449.03 1120.8 450.25C1174.28 455.322 1198.91 440.409 1232.93 421.863C1260.69 406.727 1292.66 387.766 1341.01 368.361C1392.92 347.119 1447.36 333.133 1502.89 326.779" stroke="#3A3A3A" stroke-opacity="0.3" stroke-width="0.98893" stroke-miterlimit="10"/>
<path d="M-51.1006 181.16C-10.0868 192.355 30.135 206.414 69.2841 223.241C73.0613 224.904 76.8654 226.262 80.5617 227.648C154.325 255.37 165.953 261.33 206.45 285.447C241.335 306.21 252.316 325.615 291.006 335.706C313.996 341.463 337.929 342.031 361.153 337.369C381.82 333.488 394.231 323.287 406.507 312.586C419.997 300.749 432.3 287.443 451.698 275.329C497.348 246.942 546.128 250.38 558.161 242.646C588.741 244.294 618.157 255.224 642.689 274.054C661.009 288.164 671.801 305.379 680.623 310.84C730.536 387.406 711.839 435.585 771.519 465.081C797.77 478.026 830.443 478.22 855.157 476.917C859.959 476.668 864.384 476.335 868.242 476.086C918.776 472.565 938.903 454.519 988.896 445.759C1030.69 438.468 1051.87 450.139 1083.33 455.933C1095.07 457.612 1106.9 458.648 1118.75 459.037C1172.31 462.613 1197.48 446.258 1231.39 426.326C1259.13 409.998 1290.91 390.012 1339.31 370.413C1391.61 349.006 1446.71 335.72 1502.81 330.993" stroke="#3A3A3A" stroke-opacity="0.3" stroke-width="0.98893" stroke-miterlimit="10"/>
<path d="M-52.665 179.58C-12.0719 190.248 27.919 203.204 67.1261 218.389C70.9033 219.914 74.7074 221.162 78.4037 222.354C153.138 247.635 165.468 251.572 205.21 275.024C240.607 295.759 250.698 315.635 289.9 325.892C312.987 331.732 337.049 332.225 360.344 327.334C381.254 323.203 393.53 312.669 405.617 301.581C418.891 289.439 430.951 275.745 450.7 263.464C497.349 234.523 547.828 239.568 558.89 232.971C590.353 235.839 620.181 248.64 644.282 269.618C662.655 285.475 673.339 303.909 681.676 310.396C731.589 393.033 708.359 446.424 767.31 477.86C793.616 491.887 826.666 492.053 851.272 490.612C856.129 490.334 860.58 489.974 864.438 489.669C915.7 485.677 934.883 466.078 985.606 456.154C1028.18 447.838 1049.06 459.592 1080.76 465.025C1092.62 466.612 1104.56 467.455 1116.51 467.548C1170.15 469.627 1195.86 451.83 1229.64 430.484C1257.4 412.992 1289 391.952 1337.56 372.27C1390.27 350.672 1446.06 338.059 1502.73 334.929" stroke="#3A3A3A" stroke-opacity="0.3" stroke-width="0.98893" stroke-miterlimit="10"/>
<path d="M-54.1758 178C-7.95909 190.059 33.5091 202.339 64.9678 213.594C68.7989 214.98 72.6031 216.033 76.2724 217.142C152.005 239.763 165.01 241.869 203.78 264.268C239.906 285.225 249.214 305.545 288.848 315.996C312.062 321.907 336.28 322.315 359.67 317.188C380.822 312.78 392.963 301.969 404.888 290.465C417.839 277.99 429.737 263.936 449.81 251.489C497.511 221.993 549.636 228.563 559.754 223.407C592.079 227.527 622.269 242.177 645.901 265.211C664.301 282.814 676.091 301.387 682.782 310.008C744.836 390.206 704.879 457.235 763.129 490.667C789.461 505.803 822.97 505.914 847.468 504.334C852.378 504.029 856.83 503.613 860.715 503.28C912.598 498.817 930.863 477.666 982.341 466.605C1025.7 457.263 1046.28 469.072 1078.31 474.118C1090.25 475.937 1102.32 476.596 1114.38 476.086C1168.04 474.201 1194.35 457.402 1228.02 434.698C1255.76 415.986 1287.11 393.92 1335.94 373.961C1389.1 352.183 1445.6 340.236 1502.81 338.672" stroke="#3A3A3A" stroke-opacity="0.3" stroke-width="0.98893" stroke-miterlimit="10"/>
<path d="M-55.7666 176.42C-9.03728 188.118 32.1611 199.206 62.7564 208.77C66.6146 209.99 70.4187 210.905 74.088 211.875C150.873 231.834 164.498 232.139 202.405 253.817C239.178 274.885 247.569 295.704 287.715 306.321C311.074 312.31 335.469 312.632 358.97 307.264C380.338 302.551 392.317 291.463 404.08 279.542C416.761 266.735 428.362 252.32 448.867 239.707C497.593 209.63 551.202 217.752 560.591 213.899C597.661 219.443 626.8 239.291 647.466 261.025C665.84 280.429 677.468 300.472 683.808 309.814C743.839 398.161 701.345 468.241 758.867 503.696C785.226 519.913 819.194 519.968 843.584 518.25C848.548 517.889 853.054 517.473 856.912 517.113C909.496 512.151 926.871 489.392 979.05 477.222C1023.16 466.882 1043.45 478.775 1075.77 483.432C1087.83 485.111 1100.02 485.566 1112.17 484.79C1165.86 481.824 1192.79 463.195 1226.35 439.078C1254.06 419.174 1285.22 396.082 1334.27 375.929C1372.28 360.322 1427.54 343.384 1502.84 342.664" stroke="#3A3A3A" stroke-opacity="0.3" stroke-width="0.98893" stroke-miterlimit="10"/>
<path d="M-57.333 174.839C-10.118 186.26 30.8106 196.018 60.5695 203.974C64.4546 205 68.2588 205.776 71.9281 206.746C149.603 223.85 164.011 222.381 201.054 243.283C238.098 264.185 245.949 285.724 286.635 296.508C310.116 302.598 334.673 302.845 358.267 297.228C379.851 292.183 391.722 280.873 403.323 268.565C415.707 255.453 427.227 240.649 447.948 227.87C497.726 197.377 552.954 206.885 561.426 204.362C599.387 211.071 628.552 233.248 649.057 256.755C667.376 277.768 678.735 299.418 684.859 309.426C742.569 405.757 697.783 479.079 754.656 516.503C781.016 533.857 815.415 533.829 839.751 531.971C844.743 531.583 849.275 531.112 853.241 530.724C906.5 525.18 922.985 501.007 975.865 487.645C1020.76 476.307 1040.78 488.283 1073.4 492.552C1085.58 494.1 1097.88 494.36 1110.12 493.328C1163.83 489.253 1191.33 468.795 1224.81 443.291C1252.49 422.196 1283.46 398.078 1332.73 377.731C1370.8 362.013 1426.57 345.38 1503 346.572" stroke="#3A3A3A" stroke-opacity="0.3" stroke-width="0.98893" stroke-miterlimit="10"/>
<path d="M-58.8701 173.259C-11.1965 184.347 29.4623 192.83 58.3849 199.206C62.297 200.065 66.1011 200.731 69.7704 201.396C148.39 215.839 163.526 212.623 199.706 232.776C237.775 253.955 244.304 275.744 285.529 286.722C309.144 292.919 333.876 293.081 357.566 287.193C379.366 281.787 391.129 270.255 402.568 257.587C414.655 244.114 425.987 228.979 447.058 216.005C497.835 184.819 555.113 191.943 562.263 194.798C599.172 209.463 630.279 227.149 650.649 252.486C668.888 275.19 680.138 298.337 685.939 309.287C741.113 413.38 694.195 490.195 750.448 529.587C776.808 548.05 811.666 547.911 835.894 545.943C840.966 545.527 845.499 545.028 849.384 544.612C903.344 538.68 918.884 512.844 972.493 498.318C1018.14 485.954 1037.87 498.041 1070.81 501.922C1083.11 503.334 1095.53 503.399 1107.85 502.116C1161.6 496.959 1189.68 474.644 1223.03 447.754C1250.71 425.577 1281.5 400.296 1330.95 379.754C1369.05 363.925 1425.38 347.653 1502.92 350.675" stroke="#3A3A3A" stroke-opacity="0.3" stroke-width="0.98893" stroke-miterlimit="10"/>
<path d="M-60.4355 171.679C-12.2763 182.573 28.0858 189.559 56.1989 194.327C60.138 194.993 63.9421 195.547 67.6384 196.074C147.175 207.772 163.067 202.865 198.356 222.215C237.208 243.56 242.604 265.737 284.449 276.826C308.201 283.102 333.103 283.178 356.891 277.047C378.852 271.254 390.535 259.555 401.785 246.554C413.603 232.693 424.745 217.253 446.141 204.141C497.969 172.4 556.462 184.403 563.099 185.207C603.569 190.169 631.979 221.023 652.133 248.19C665.765 267.142 677.412 287.519 686.883 308.982C739.494 420.643 690.498 501.145 746.239 542.505C772.571 562.077 807.915 561.91 832.062 559.776C837.161 559.332 841.748 558.778 845.552 558.334C900.16 551.82 914.81 524.459 969.174 508.852C1015.55 495.435 1035.03 507.715 1068.27 511.153C1080.7 512.429 1093.24 512.29 1105.64 510.737C1159.44 504.5 1188.04 480.244 1221.33 452.051C1248.96 428.516 1279.55 402.375 1329.25 381.667C1367.4 365.727 1424.22 349.76 1502.92 354.639" stroke="#3A3A3A" stroke-opacity="0.3" stroke-width="0.98893" stroke-miterlimit="10"/>
<path d="M-62 170.099C-13.436 180.522 26.6832 186.233 54.0139 189.504C144.451 200.315 161.016 192.276 197.008 211.681C236.399 232.943 241.066 255.785 283.344 267.123C307.228 273.505 332.305 273.505 356.19 267.123C401.462 254.372 402.703 218.279 445.224 192.276C498.077 159.953 558.162 174.174 563.935 175.643C640.882 195.048 676.766 281.843 688.043 308.705C738.037 427.685 686.964 512.096 742.003 555.424C773.948 580.567 819.921 574.829 841.829 572.057C897.111 565.126 910.871 536.185 965.937 519.386C1027.99 500.425 1041.67 527.703 1103.53 519.386C1202.23 505.997 1218.06 429.57 1327.47 383.552C1365.65 367.502 1423 351.867 1502.84 358.603" stroke="#3A3A3A" stroke-opacity="0.3" stroke-width="0.98893" stroke-miterlimit="10"/>
<path d="M-60.543 173.564C-12.8424 183.987 26.6024 190.197 53.9331 193.634C141.969 205.055 159.155 197.515 194.93 216.948C233.593 238.016 238.746 260.193 279.971 271.614C303.357 277.962 327.905 278.286 351.441 272.556C396.12 261.717 397.847 226.511 439.72 201.507C491.44 170.404 549.717 183.35 556.462 184.486C619.568 194.992 654.372 258.89 671.505 292.987C675.012 299.945 677.548 305.933 679.599 310.257C730.861 422.888 682.459 504.001 736.688 544.917C769.064 569.284 815.416 563.158 838.241 560.524C859.158 558.165 879.432 551.67 897.948 541.397C916.834 531.666 934.505 520.689 963.563 513.398C972.466 511.18 980.398 509.961 987.521 508.907C1030.69 502.504 1047.34 518.277 1099.35 508.769C1119.48 505.139 1138.85 498.024 1156.66 487.728C1204.98 460.007 1235.2 410.109 1310.01 373.683C1314.4 371.54 1318.99 369.451 1323.77 367.418C1362.3 350.952 1420.52 334.569 1501.57 340.861" stroke="#3A3A3A" stroke-opacity="0.3" stroke-width="0.98893" stroke-miterlimit="10"/>
<path d="M-59.0859 177.029C-12.3566 187.453 26.5215 193.912 53.8792 197.737C139.46 209.74 157.186 202.755 192.853 222.243C230.814 242.867 236.426 264.85 276.491 276.077C299.396 282.408 323.435 283.073 346.639 278.018C390.643 268.953 392.991 234.884 434.189 210.711C484.803 181.021 541.542 190.585 548.935 193.33C607.32 214.813 645.199 263.326 662.844 295.454C666.433 301.997 668.915 307.735 670.938 311.782C723.387 418.204 677.845 495.823 731.212 534.411C763.857 557.974 810.722 551.487 834.464 548.965C855.545 546.741 876.092 540.786 895.196 531.362C914.379 522.574 932.32 513.066 961.027 507.438C969.957 505.664 977.944 504.999 985.066 503.946C1028.1 497.542 1044.02 509.989 1094.98 498.124C1114.87 493.414 1133.92 485.519 1151.42 474.727C1197.94 447.006 1229.67 395.362 1305.99 357.716C1310.44 355.554 1315.09 353.392 1319.91 351.285C1358.77 334.403 1417.85 317.271 1500.14 323.092" stroke="#3A3A3A" stroke-opacity="0.3" stroke-width="0.98893" stroke-miterlimit="10"/>
<path d="M-57.6289 180.495C-11.8709 190.89 26.4137 197.737 53.7444 201.979C136.897 214.481 155.216 208.133 190.722 227.621C227.954 247.913 234.052 269.48 273.146 280.651C295.558 286.927 319.068 287.875 341.891 283.423C385.059 276.077 388.161 243.145 428.685 219.914C478.193 191.528 533.125 198.791 541.461 202.117C587.822 221.209 627.234 254.679 654.211 297.866C657.88 303.993 660.335 309.481 662.305 313.279C715.887 413.27 673.259 487.701 725.681 523.96C758.704 546.747 806 539.845 830.66 537.488C851.911 535.358 872.724 529.927 892.39 521.382C911.923 513.537 930.162 505.526 958.437 501.506C967.448 500.231 975.461 500.092 982.584 499.039C1025.56 492.608 1040.62 501.811 1090.5 487.535C1110.13 481.719 1128.84 473.057 1146.08 461.809C1190.79 433.894 1224.16 380.78 1301.84 341.804C1306.32 339.587 1311.01 337.378 1315.92 335.179C1355.1 317.909 1415.07 300.028 1498.58 305.406" stroke="#3A3A3A" stroke-opacity="0.3" stroke-width="0.98893" stroke-miterlimit="10"/>
<path d="M-56.1719 183.932C-11.3851 194.355 26.3329 201.563 53.7176 206.109C134.442 219.11 153.382 213.4 188.617 232.915C225.094 252.902 231.785 273.998 269.692 285.142C291.635 291.45 314.651 292.775 337.142 289.023C379.69 283.479 383.332 251.599 423.208 229.284C471.61 201.978 524.086 212.845 533.988 210.988C591.051 222.825 626.934 271.974 645.604 300.361C649.354 306.044 651.756 311.255 653.86 314.831C708.629 408.474 668.915 479.523 720.366 513.398C753.821 535.409 801.468 528.118 827.072 525.873C848.511 523.846 869.599 518.944 889.8 511.292C909.711 504.389 928.166 497.902 956.09 495.463C965.155 494.659 973.195 495.075 980.372 494.021C1023.3 487.59 1037.49 493.439 1086.46 476.862C1107.2 469.821 1124.23 459.73 1141.17 448.753C1184.12 420.782 1218.98 365.894 1298.14 325.781C1302.64 323.508 1307.39 321.244 1312.39 318.99C1351.91 301.276 1412.75 282.647 1497.47 287.582" stroke="#3A3A3A" stroke-opacity="0.3" stroke-width="0.98893" stroke-miterlimit="10"/>
<path d="M-54.7422 187.397C-11.0076 197.793 26.2247 205.36 53.7443 210.073C131.986 223.546 151.412 218.611 186.648 238.016C222.369 257.754 229.465 278.35 266.427 289.439C287.859 295.744 310.336 297.387 332.42 294.262C374.159 290.16 378.529 259.694 417.731 238.321C465 212.568 515.561 222.464 526.568 219.775C581.931 230.531 617.788 276.271 637.024 302.773C640.856 308.04 643.23 313.002 645.388 316.328C701.318 403.567 664.598 471.262 715.024 502.837C748.91 524.071 796.935 516.365 823.429 514.286C850.409 512.179 869.43 506.44 887.183 501.229C907.472 495.269 926.358 486.62 953.688 489.42C961.768 490.314 969.924 490.175 977.97 489.004C1020.87 482.572 1034.14 485.206 1082.17 466.162C1102.27 458.206 1118.99 447.256 1136.13 435.668C1177.33 407.725 1213.67 351.146 1294.28 309.731C1298.83 307.402 1303.64 305.074 1308.69 302.745C1348.54 284.643 1410.24 265.266 1496.2 269.729" stroke="#3A3A3A" stroke-opacity="0.3" stroke-width="0.98893" stroke-miterlimit="10"/>
<path d="M-53.2861 190.89C-10.415 201.286 26.1429 209.214 53.5546 214.231C129.449 228.092 149.495 223.878 184.569 243.339C219.643 262.799 227.171 282.869 263.027 293.985C294.27 303.66 320.306 301.581 327.779 299.779C367.628 290.077 373.78 268.038 412.334 247.608C458.47 223.158 507.169 232.167 519.202 228.674C572.838 238.377 608.641 280.596 628.525 305.268C632.41 310.119 634.757 314.832 636.943 317.936C694.032 398.771 660.388 463.029 709.789 492.414C744.161 512.872 792.482 504.75 819.921 502.809C847.359 500.869 866.596 495.657 884.673 491.249C905.312 486.232 924.846 478.719 951.394 483.515C959.406 485.038 967.604 485.234 975.676 484.097C1018.52 477.666 1030.9 477.084 1077.96 455.6C1097.44 446.729 1113.79 434.892 1130.95 422.806C1170.42 395.085 1208.27 336.593 1290.32 293.874C1294.9 291.49 1299.76 289.106 1304.89 286.722C1345.09 268.205 1407.65 248.079 1494.82 252.071" stroke="#3A3A3A" stroke-opacity="0.3" stroke-width="0.98893" stroke-miterlimit="10"/>
<path d="M-51.8291 194.272C-9.9292 204.751 26.0351 213.067 53.4737 218.279C126.94 232.472 147.58 229.062 182.492 248.522C216.757 267.65 224.851 287.332 259.655 298.421C290.034 308.095 315.341 306.903 322.923 305.185C361.99 296.258 368.789 276.299 406.723 256.811C451.725 233.636 498.454 241.814 511.621 237.406C563.557 246.028 599.225 284.532 619.783 307.624C622.818 311.381 625.664 315.295 628.309 319.35C686.505 393.782 656.018 454.574 704.231 481.796C739.116 501.451 787.734 492.885 816.09 491.138C843.366 489.42 863.413 484.679 881.84 481.103C902.857 477.028 923.038 470.846 948.777 477.416C956.745 479.585 965.049 480.131 973.221 479.024C1016.04 472.565 1027.5 468.823 1073.61 444.844C1092.5 435.058 1108.42 422.39 1125.71 409.693C1163.48 381.972 1202.82 321.817 1286.3 277.796C1290.92 275.357 1295.83 272.917 1301.03 270.478C1341.5 251.544 1404.98 230.67 1493.39 234.218" stroke="#3A3A3A" stroke-opacity="0.3" stroke-width="0.98893" stroke-miterlimit="10"/>
<path d="M-50.3721 197.682C-9.44344 208.105 25.9273 216.699 53.4199 222.354C124.431 236.935 145.664 234.302 180.55 253.762C214.086 272.584 222.665 291.768 256.39 302.801C286.068 312.475 310.512 312.17 318.309 310.535C356.621 302.468 364.175 284.505 401.354 265.931C445.223 244.059 490.145 251.378 504.282 246.222C554.492 253.762 589.971 288.829 611.312 309.98C614.374 313.427 617.247 317.045 619.919 320.819C679.274 388.819 651.944 446.091 698.97 471.207C734.368 490.085 783.255 481.131 812.529 479.523C840.048 477.971 860.553 473.729 879.304 470.985C901.592 467.836 924.202 467.957 946.457 471.345C955.954 472.593 963.94 475.032 970.982 474.118C1013.75 467.631 1024.29 460.784 1069.46 434.282C1087.64 423.61 1103.26 410.026 1120.72 396.775C1156.85 369.276 1197.59 307.208 1282.6 261.884C1287.24 259.417 1292.23 256.894 1297.52 254.372C1338.37 234.967 1402.74 213.4 1492.29 216.505" stroke="#3A3A3A" stroke-opacity="0.3" stroke-width="0.98893" stroke-miterlimit="10"/>
<path d="M-48.7793 202.45C-8.82195 212.845 25.9822 221.855 53.4748 227.759C121.95 242.646 143.777 240.788 178.338 260.332C211.173 278.85 220.211 297.561 252.884 308.567C281.59 318.241 305.387 318.796 313.4 317.271C351.01 310.147 359.131 294.068 395.743 276.438C438.452 255.869 481.512 262.328 496.675 256.368C545.239 262.827 580.313 294.235 602.544 313.806C605.635 316.937 608.545 320.25 611.259 323.73C671.559 385.299 647.655 439.023 693.44 462.059C729.404 480.161 778.508 470.819 808.725 469.35C836.434 467.991 857.424 464.249 876.499 462.336C898.245 460.146 918.507 462.004 943.949 466.744C953.581 468.546 961.54 471.456 968.555 470.403C1011.26 463.916 1020.92 453.964 1065.14 424.885C1082.68 413.325 1097.92 398.882 1115.51 385.022C1150.02 357.8 1192.16 293.819 1278.5 247.164C1283.2 244.614 1288.21 242.063 1293.58 239.458C1334.75 219.72 1399.91 197.349 1490.78 199.983" stroke="#3A3A3A" stroke-opacity="0.3" stroke-width="0.98893" stroke-miterlimit="10"/>
<path d="M-47.458 214.453C-8.47194 224.848 25.7387 234.135 53.2583 240.428C119.44 255.591 141.861 254.649 176.26 274.053C208.366 292.266 217.89 310.535 249.511 321.484C277.354 331.159 300.395 332.573 308.651 331.159C345.559 325.033 354.274 310.784 390.238 294.096C431.787 274.691 472.986 280.457 489.201 273.638C535.984 279.182 568.117 311.228 593.937 324.728C597.363 328.498 600.331 331.547 602.705 333.709C664.031 388.819 643.553 439.05 688.043 460.007C724.601 477.278 773.92 467.547 805.055 466.245C832.953 465.08 854.429 461.837 873.827 460.7C895.951 459.453 916.591 463.14 941.412 469.155C951.179 471.512 959.111 474.894 966.099 473.812C1008.78 467.326 1017.52 454.408 1060.77 422.639C1077.69 410.248 1092.55 394.918 1110.28 380.42C1143.2 353.502 1186.71 287.554 1274.48 239.596C1279.21 237.027 1284.29 234.403 1289.72 231.723C1331.25 211.708 1397.35 188.589 1489.35 190.89" stroke="#3A3A3A" stroke-opacity="0.3" stroke-width="0.98893" stroke-miterlimit="10"/>
<path d="M-46.0811 225.264C-7.98533 235.66 25.6317 245.251 53.1783 251.877C116.959 267.29 140.081 267.29 174.183 286.805C205.561 304.686 215.571 322.51 246.112 333.432C273.092 343.079 295.377 345.242 303.903 344.05C340.137 338.977 349.418 326.53 384.843 310.784C425.313 292.765 464.569 297.561 481.836 289.938C526.893 294.262 558.702 323.397 585.412 334.624C588.211 337.493 591.176 340.187 594.289 342.691C656.558 391.397 639.588 437.858 682.756 456.958C719.934 473.397 769.416 463.279 801.468 462.17C829.581 461.172 851.543 458.427 871.238 458.178C893.739 457.873 914.784 463.445 939.066 470.68C948.94 473.619 956.872 477.444 963.86 476.224C1006.46 469.71 1014.34 453.715 1056.62 419.368C1072.81 406.145 1087.4 389.956 1105.18 374.82C1136.51 348.263 1181.37 280.291 1270.57 231.003C1275.32 228.231 1280.47 225.68 1285.97 222.963C1327.82 202.367 1394.7 178.61 1488.03 180.245" stroke="#3A3A3A" stroke-opacity="0.3" stroke-width="0.98893" stroke-miterlimit="10"/>
<path d="M-44.5703 236.075C-7.47285 246.471 25.5776 256.367 53.0972 263.381C114.477 278.96 138.03 279.875 172.106 299.418C202.755 316.994 213.25 334.375 242.739 345.241C268.91 354.888 290.386 355.692 299.155 356.829C334.633 361.486 344.562 342.137 379.231 327.361C418.487 310.729 455.935 314.582 474.255 306.127C517.611 309.37 549.043 335.484 576.778 344.437C579.605 347.025 582.598 349.414 585.736 351.59C648.923 393.864 635.514 436.583 677.468 453.798C715.24 469.377 764.91 458.926 797.906 457.956C826.235 457.152 848.656 454.934 868.675 455.489C891.554 456.126 912.949 463.639 936.718 472.121C946.728 475.642 954.606 479.883 961.594 478.83C1004.17 472.288 1011.18 453.299 1052.44 416.291C1068.11 402.236 1082.25 385.16 1100.22 369.387C1129.89 343.218 1176.19 273.194 1266.82 222.464C1271.62 219.803 1276.81 217.031 1282.39 214.148C1324.56 193.135 1392.33 168.519 1486.87 169.794" stroke="#3A3A3A" stroke-opacity="0.3" stroke-width="0.98893" stroke-miterlimit="10"/>
<path d="M-43.1133 246.915C-6.98709 257.421 25.4428 267.484 53.0164 274.858C111.995 290.603 136.115 292.488 170.029 312.059C199.949 329.302 210.93 346.129 239.34 357.217C264.674 366.864 285.422 368.306 294.379 369.775C328.968 375.319 339.679 357.91 373.727 344.077C411.823 328.581 447.437 331.741 466.781 322.455C508.411 324.645 539.627 347.681 568.064 354.39C570.918 356.702 573.94 358.787 577.102 360.627C641.153 396.498 631.467 435.474 671.856 450.804C710.357 465.469 760.108 454.685 793.994 453.909C822.539 453.271 845.445 451.58 865.788 452.966C889.045 454.546 910.791 464.055 934.047 473.563C944.165 477.721 952.043 482.378 959.004 481.297C1001.52 474.755 1007.73 452.8 1048.04 413.103C1063.09 398.217 1076.85 380.281 1094.93 363.843C1123.2 338.09 1170.69 265.987 1262.74 214.148C1267.58 211.395 1272.83 208.622 1278.47 205.832C1320.99 184.431 1389.6 159.066 1485.38 159.898" stroke="#3A3A3A" stroke-opacity="0.3" stroke-width="0.98893" stroke-miterlimit="10"/>
<path d="M-41.6562 257.726C-6.58228 268.094 25.335 278.572 52.9355 286.334C109.593 302.191 134.199 305.129 167.951 324.672C197.171 341.61 208.61 358.132 235.968 369.026C260.439 378.673 280.458 380.752 289.631 382.554C323.302 389.124 334.822 373.489 368.224 360.627C405.159 346.406 438.911 348.734 459.308 338.616C499.238 339.725 529.995 359.74 559.458 364.175C562.346 366.202 565.397 367.974 568.577 369.47C633.329 399.048 627.501 433.977 666.46 447.616C705.419 461.255 755.494 450.388 790.325 449.695C819.059 449.224 842.451 448.032 863.171 450.25C886.779 452.772 908.875 464.11 931.646 474.921C941.872 479.717 949.75 484.735 956.684 483.681C999.15 477.111 1004.57 452.245 1043.72 409.804C1058.21 394.114 1071.59 375.319 1089.78 358.187C1116.54 332.933 1165.32 258.696 1258.78 205.416C1263.63 202.644 1268.95 199.872 1274.67 196.85C1317.46 174.923 1386.96 148.809 1483.95 149.308" stroke="#3A3A3A" stroke-opacity="0.3" stroke-width="0.98893" stroke-miterlimit="10"/>
<path d="M-40.1992 268.509C-6.01559 278.877 25.2542 289.633 52.8817 297.755C107.057 313.722 132.284 317.687 165.874 337.258C194.365 353.891 206.344 369.941 232.568 380.697C256.23 390.344 275.52 393.061 284.883 395.195C317.663 402.652 329.939 388.958 362.747 377.038C398.495 364.064 430.386 365.617 451.781 354.667C489.984 354.667 520.391 371.66 550.77 373.822C553.716 375.564 556.803 377.038 559.997 378.23C625.721 401.571 623.562 432.397 661.064 444.372C700.968 457.097 750.881 445.814 786.656 445.426C815.579 445.093 839.456 444.428 860.446 447.477C884.432 450.942 906.825 464.415 929.137 476.196C939.471 481.741 947.322 487.035 954.256 485.954C996.695 479.412 1001.34 451.608 1039.4 406.422C1053.3 389.928 1066.38 370.385 1084.57 352.449C1109.88 327.694 1159.9 251.322 1254.79 196.711C1259.7 193.884 1265.05 190.964 1270.84 187.951C1314.01 165.774 1384.37 138.885 1482.6 138.802" stroke="#3A3A3A" stroke-opacity="0.3" stroke-width="0.98893" stroke-miterlimit="10"/>
<path d="M-38.7422 279.376C-5.52984 289.744 25.1464 300.749 52.8009 309.287C104.602 325.31 130.395 330.355 163.796 349.982C191.559 366.254 203.97 381.889 229.196 392.589C245.71 399.243 262.753 404.418 280.134 408.058C312.024 416.374 325.056 404.62 357.243 393.67C391.804 381.944 421.995 382.582 444.361 370.911C480.838 369.886 510.921 383.802 542.218 383.718C545.21 385.166 548.326 386.326 551.526 387.184C617.842 404.26 619.677 430.9 655.668 441.24C696.327 452.911 746.294 442.127 782.96 441.24C812.098 440.547 836.434 440.963 857.775 444.816C882.057 449.224 904.828 464.748 926.682 477.582C937.097 483.681 944.975 489.447 951.882 488.366C994.267 481.796 998.179 451.109 1035.14 403.151C1048.44 385.881 1061.12 365.422 1079.44 346.822C1103.27 322.593 1154.53 244.059 1250.85 188.118C1255.78 185.346 1261.18 182.268 1267.03 179.191C1310.55 156.543 1381.78 128.933 1481.23 128.406" stroke="#3A3A3A" stroke-opacity="0.3" stroke-width="0.98893" stroke-miterlimit="10"/>
<path d="M-37.2852 290.215C-4.90918 300.583 25.0656 311.81 52.7201 320.708C102.147 336.731 128.48 342.885 161.746 362.54C188.726 378.479 201.65 393.698 225.797 404.343C241.89 411.176 258.468 416.736 275.386 420.976C306.44 430.096 320.173 420.311 351.739 410.386C385.113 399.852 413.361 399.825 436.888 387.239C471.665 385.105 501.397 395.999 533.584 393.643C536.632 394.786 539.774 395.64 542.973 396.193C610.045 407.143 615.819 429.459 650.273 438.219C691.714 448.753 741.681 437.83 779.291 437.165C808.645 436.666 833.44 437.581 855.105 442.266C879.818 447.616 902.778 465.191 924.254 479.08C934.695 485.844 942.628 491.97 949.508 490.889C991.866 484.291 995.05 450.721 1030.85 399.991C1043.61 381.917 1055.94 360.655 1074.29 341.333C1096.74 317.659 1149.19 236.935 1246.96 179.635C1251.93 176.724 1257.4 173.675 1263.34 170.515C1307.21 147.479 1379.35 119.12 1479.96 118.122" stroke="#3A3A3A" stroke-opacity="0.3" stroke-width="0.98893" stroke-miterlimit="10"/>
<path d="M-35.8564 301.054C-4.55967 311.394 24.9834 322.871 52.6379 332.268C99.61 348.319 126.59 355.582 159.667 375.264C185.973 390.898 199.328 405.757 222.423 416.263C238.096 423.147 254.192 428.962 270.609 433.672C300.854 443.569 315.288 435.807 346.153 426.853C378.367 417.566 404.754 416.762 429.332 403.318C462.383 400.13 491.764 407.975 524.895 403.318C527.995 404.166 531.166 404.714 534.365 404.953C602.193 409.832 611.825 427.629 644.794 434.92C687.018 444.289 736.985 433.256 775.539 432.868C805.082 432.536 830.363 433.949 852.351 439.466C877.443 445.759 900.645 465.385 921.717 480.327C932.212 487.784 940.171 494.188 947.051 493.162C989.356 486.564 991.892 450.083 1026.51 396.581C1038.7 377.731 1050.79 355.692 1069.05 335.595C1090.21 312.503 1143.74 229.7 1242.97 170.931C1247.96 167.965 1253.49 164.86 1259.51 161.644C1303.7 138.22 1376.65 109.085 1478.56 107.726" stroke="#3A3A3A" stroke-opacity="0.3" stroke-width="0.98893" stroke-miterlimit="10"/>
<path d="M-34.3994 311.893C-4.07392 322.261 24.9565 333.904 52.5571 343.8C97.2899 359.795 124.675 368.25 157.59 387.932C183.194 403.234 197.008 417.622 219.023 428.128C234.282 435.168 249.92 441.304 265.861 446.507C295.296 457.18 310.378 451.414 340.73 443.458C371.757 435.363 396.309 433.811 421.94 419.562C453.291 415.293 482.321 420.089 516.37 413.214C519.536 413.648 522.726 413.88 525.921 413.907C594.45 417.04 608.048 425.966 639.479 431.843C682.486 439.882 732.479 428.35 771.924 428.738C801.602 429.043 827.449 430.512 849.761 436.86C875.231 444.095 898.622 465.801 919.343 481.769C929.892 489.919 937.905 496.683 944.758 495.629C987.036 489.031 988.924 449.695 1022.3 393.421C1033.95 373.767 1045.69 350.952 1064.01 330.023C1083.7 307.513 1138.5 222.381 1239.03 162.393C1244.08 159.362 1249.65 156.211 1255.73 152.94C1300.25 129.044 1374.09 99.1883 1477.21 97.3033" stroke="#3A3A3A" stroke-opacity="0.3" stroke-width="0.98893" stroke-miterlimit="10"/>
<path d="M-32.9424 322.704C-3.58817 333.044 24.8757 344.881 52.4762 355.249C94.8888 371.161 122.759 380.808 155.513 400.545C180.388 415.515 194.661 429.486 215.651 439.937C235.077 449.64 250.725 455.184 261.112 459.342C289.765 470.735 305.494 466.993 335.226 460.091C362.121 453.745 388.589 445.625 414.467 435.779C442.85 425.522 472.474 415.321 507.736 423.055C510.938 423.513 514.19 423.438 517.368 422.833C586.815 415.792 604.163 424.219 634.084 428.738C677.899 435.336 727.866 423.97 768.255 424.58C798.23 425.023 824.454 427.047 847.091 434.199C872.91 442.515 896.518 466.189 916.888 483.182C927.464 492.025 935.558 499.122 942.411 498.041C984.608 491.415 985.903 449.196 1017.95 390.15C1029.07 369.692 1040.54 346.156 1058.78 324.423C1077.01 302.69 1133.16 215.312 1235.01 153.771C1240.08 150.75 1245.8 147.506 1251.87 144.152C1296.74 119.868 1371.42 89.264 1475.81 86.9077" stroke="#3A3A3A" stroke-opacity="0.3" stroke-width="0.98893" stroke-miterlimit="10"/>
<path d="M-31.4863 333.543C-3.10339 343.883 24.8209 355.72 52.4214 366.809C92.4867 382.637 120.87 393.504 153.434 413.269C177.716 427.906 192.34 441.462 212.251 451.857C230.84 461.587 245.949 467.658 256.363 472.177C284.26 484.291 300.583 482.545 329.722 476.696C358.347 470.957 377.341 463.639 406.992 452.024C433.702 441.545 462.139 439.521 499.129 432.896C502.528 432.286 505.793 432.342 508.842 431.787C579.152 418.814 600.277 422.417 628.687 425.633C673.285 430.651 723.279 419.618 764.558 420.421C794.749 421.031 821.459 423.582 844.419 431.51C870.616 440.658 894.386 466.494 914.432 484.541C925.035 494.077 933.318 501.506 940.036 500.425C982.179 493.799 982.907 448.669 1013.75 386.768C1024.35 365.506 1035.57 341.305 1053.7 318.685C1070.78 297.395 1127.9 207.938 1231.15 145.067C1236.28 141.99 1241.94 138.691 1248.17 135.253C1293.37 110.582 1368.94 79.229 1474.51 76.4014" stroke="#3A3A3A" stroke-opacity="0.3" stroke-width="0.98893" stroke-miterlimit="10"/>
<path d="M-29.8936 344.355C-2.4819 354.695 24.9298 366.753 52.4763 378.202C90.2483 393.92 119.09 405.923 151.493 425.827C174.938 440.131 190.155 453.271 209.014 463.639C226.74 473.341 241.201 479.911 251.75 484.901C278.919 497.736 295.836 497.986 324.38 493.217C351.792 488.616 369.14 481.159 399.655 468.268C424.773 457.568 452.697 452.55 490.631 442.765C494.004 441.906 497.349 441.545 500.452 440.741C571.679 421.863 596.608 425.689 623.427 422.528C669.111 417.373 715.076 415.299 761.024 416.319C791.431 417.067 818.6 420.144 841.964 428.96C868.54 439.05 892.444 466.966 912.112 486.038C922.715 496.267 930.998 504.001 937.797 502.948C979.913 496.295 980.048 448.281 1009.62 383.746C1019.71 361.708 1030.74 336.842 1048.71 313.307C1064.5 292.655 1122.66 200.897 1227.35 136.723C1232.5 133.59 1238.14 130.236 1244.53 126.743C1290.07 101.628 1366.48 69.5267 1473.3 66.2833" stroke="#3A3A3A" stroke-opacity="0.3" stroke-width="0.98893" stroke-miterlimit="10"/>
<path d="M-28.5723 352.144C-2.13189 362.484 24.7672 374.626 52.3677 386.657C87.8733 402.209 117.12 415.598 149.496 435.419C172.24 449.279 187.915 462.142 205.722 472.426C222.584 482.156 236.425 489.225 247.055 494.603C273.577 508.131 291.006 510.377 318.957 506.69C345.181 503.225 360.965 495.768 392.261 481.242C415.842 470.292 443.362 462.391 482.105 449.362C485.477 448.226 488.823 447.477 492.006 446.396C564.205 421.669 592.831 419.34 618.111 416.18C664.324 410.337 710.884 407.901 757.435 408.889C788.031 409.804 815.685 413.408 839.266 423.055C866.246 434.143 890.258 464.055 909.737 484.042C920.314 494.964 928.623 503.058 935.503 501.977C977.565 495.296 977.187 444.4 1005.41 377.065C1014.99 354.195 1025.91 328.72 1043.64 304.27C1058.18 284.227 1117.38 190.197 1223.49 124.692C1228.67 121.504 1234.47 118.094 1240.84 114.546C1286.7 89.0144 1364 56.1648 1472.03 52.4501" stroke="#3A3A3A" stroke-opacity="0.3" stroke-width="0.98893" stroke-miterlimit="10"/>
<path d="M-27.1953 356.33C-1.72621 366.67 24.7142 378.812 52.0988 391.481C85.3382 406.866 115.124 421.475 147.122 441.379C169.165 454.99 185.272 467.381 202.027 477.583C218.053 487.34 231.273 494.853 242.011 500.785C267.885 515.006 285.826 519.22 313.157 516.642C338.195 514.285 352.521 507.023 384.492 490.806C406.562 479.717 433.758 468.85 473.175 452.55C476.575 451.164 479.947 450.028 483.158 448.669C556.436 418.038 588.542 409.472 612.419 406.395C658.906 400.435 709.385 396.609 753.443 398.078C784.254 399.104 812.368 403.262 836.299 413.741C863.63 425.716 887.75 457.734 906.986 478.913C917.563 490.556 926.061 498.928 932.833 497.847C974.868 491.194 973.951 437.359 1000.85 367.28C1009.92 343.606 1020.79 317.548 1038.19 292.128C1051.52 272.723 1111.71 176.42 1219.25 109.584C1224.49 106.368 1230.31 102.875 1236.76 99.2437C1282.98 73.3244 1361.11 39.7263 1470.38 35.485" stroke="#3A3A3A" stroke-opacity="0.3" stroke-width="0.98893" stroke-miterlimit="10"/>
<path d="M-25.6855 360.322C-1.16075 370.634 24.8479 382.776 52.0977 396.138C83.9546 411.475 115.006 428.519 145.125 447.2C166.466 460.506 182.897 472.509 198.734 482.6C213.87 492.441 226.496 500.369 237.342 506.773C262.596 521.715 281.023 527.869 307.733 526.427C331.61 525.152 344.561 518.249 377.099 500.203C397.765 488.754 424.664 475.115 464.649 455.572C468.048 453.909 471.447 452.384 474.712 450.776C549.042 414.239 584.386 397.967 607.103 396.442C654.561 393.338 704.851 385.354 749.854 387.1C780.881 388.237 809.453 393.005 833.708 404.288C861.416 417.206 885.617 451.414 904.611 473.591C915.133 485.926 923.767 494.631 930.539 493.578C972.52 486.869 971.009 430.124 996.64 357.3C1005.69 330.021 1017.94 303.974 1033.12 279.736C1045.26 260.914 1106.42 162.365 1215.37 94.1983C1220.63 90.9272 1226.51 87.3789 1233.04 83.6919C1279.58 57.3568 1358.6 23.0102 1469.09 18.3808" stroke="#3A3A3A" stroke-opacity="0.3" stroke-width="0.98893" stroke-miterlimit="10"/>
<path d="M-24.2285 364.148C33.5692 389.468 89.4783 419.117 143.047 452.855C229.221 507.161 252.775 536.49 302.229 536.019C338.247 535.659 346.746 519.913 456.015 458.4C538.196 412.133 579.287 389.097 601.707 386.324C682.269 376.65 770.332 364.674 831.037 394.641C874.798 416.236 909.279 491.887 928.165 488.893C984.148 479.967 962.051 376.622 1027.99 267.123C1038.97 248.883 1101.08 148.116 1211.45 78.6192C1254.3 51.6465 1340.31 6.79358 1467.76 0.999847" stroke="#3A3A3A" stroke-opacity="0.3" stroke-width="0.98893" stroke-miterlimit="10"/>
</svg>
