<svg width="1655" height="639" viewBox="0 0 1655 639" fill="none" xmlns="http://www.w3.org/2000/svg">
<g clip-path="url(#clip0_13_947)">
<path d="M-263.035 99.3124C-132.382 88.5654 -40.1726 54.3829 20.2562 24.7894C81.3634 -5.13746 125.373 -37.9668 205.792 -55.617C294.49 -75.2283 352.445 -66.4425 375.368 -61.5004C407.148 -54.6364 405.173 -49.969 457.163 -34.0446C557.034 -3.45089 576.006 -17.0611 620.754 3.21696C694.949 36.8308 672.824 87.8398 750.43 144.418C806.629 185.406 899.676 218.02 983.846 195.408C1063.11 174.11 1072.03 120.63 1155.42 113.04C1189.67 109.922 1218.16 116.845 1275.12 130.691C1348.11 148.341 1397.13 170.109 1416.76 177.758C1474.92 200.448 1568.78 214.725 1722 169.913" stroke="#D0D0D0" stroke-width="1.00001" stroke-miterlimit="10"/>
<path d="M-263.912 116.61C-137.528 107.334 -43.0446 76.3869 22.8705 45.7148C76.4166 20.4554 117.254 -7.23576 173.534 -27.0236C185.843 -31.3381 198.81 -35.5153 212.776 -39.1238C300.775 -61.8337 358.511 -58.0879 382.611 -55.7934C414.93 -52.734 414.93 -49.2432 465.882 -33.7699C501.793 -22.8856 527.369 -16.6688 547.179 -12.5897C580.855 -5.66685 597.713 -5.19618 624.286 8.11991C634.202 13.0477 643.506 19.082 652.017 26.1035C691.378 58.5602 689.703 99.7048 754.999 143.32C811.837 181.288 904.266 209.999 986.999 187.544C993.554 185.761 1000.01 183.653 1006.35 181.229C1070.31 156.735 1084.67 113.648 1157.97 106.883C1165.7 106.159 1173.46 105.942 1181.21 106.235C1207.27 107.137 1234.2 113.531 1276.85 123.886C1347.52 141.144 1395.78 162.5 1417.42 170.953C1433.28 177.086 1449.63 181.901 1466.3 185.347C1524 197.428 1605.55 198.683 1720.28 167.854" stroke="#D0D0D0" stroke-width="1.00001" stroke-miterlimit="10"/>
<path d="M-264.791 135.436C-142.696 127.592 -45.8387 100.136 25.4829 68.0127C82.1212 42.5179 124.854 13.3951 180.096 -7.39288C192.705 -12.1584 205.772 -16.9828 219.797 -21.1208C307.099 -46.9489 364.535 -50.0671 389.911 -48.5766C422.61 -46.6155 424.784 -46.9881 474.619 -31.9855C509.512 -21.4542 534.988 -14.3353 554.42 -9.33439C587.158 -0.96036 602.899 0.726213 627.756 14.5522C637.228 19.8768 646.131 26.1251 654.33 33.2026C692.355 65.4436 694.23 104.117 759.607 143.81C817.083 178.738 908.893 203.546 990.19 181.248C997.073 179.287 1003.44 177.326 1009.4 174.973C1075.38 150.027 1089.98 108.941 1160.58 102.411C1168.25 101.669 1175.95 101.427 1183.65 101.685C1210.14 102.45 1237.03 108.667 1278.65 118.924C1347 135.711 1394.46 156.715 1418.14 165.775C1433.87 171.853 1450.07 176.68 1466.58 180.209C1523.76 192.564 1604.93 195.172 1718.53 167.403" stroke="#D0D0D0" stroke-width="1.00001" stroke-miterlimit="10"/>
<path d="M-265.648 155.538C-147.843 149.204 -48.6712 124.984 28.1168 91.6835C87.7675 65.7966 132.456 35.3402 186.62 13.5324C199.548 8.31577 212.735 2.86382 226.78 -1.82329C313.383 -30.7304 370.421 -36.7903 397.174 -40.085C430.271 -44.1445 434.6 -43.4581 483.338 -28.9261C517.253 -18.7871 542.63 -10.7464 561.782 -4.82382C593.562 4.98185 608.226 7.92354 631.368 22.2398C640.324 27.97 648.773 34.4319 656.625 41.557C693.313 73.5626 698.859 109.746 764.156 145.497C822.35 177.385 913.462 198.31 993.322 176.149C1000.15 174.188 1006.47 172.227 1012.39 169.933C1080.34 144.438 1095.25 105.431 1163.12 98.9397C1170.73 98.1798 1178.38 97.9112 1186.02 98.1356C1212.95 98.7436 1239.89 104.823 1280.4 114.884C1346.4 131.181 1393.1 151.812 1418.8 161.637C1434.43 167.623 1450.49 172.454 1466.86 176.091C1523.52 188.72 1604.31 192.701 1716.75 167.972" stroke="#D0D0D0" stroke-width="1.00001" stroke-miterlimit="10"/>
<path d="M-266.525 175.679C-152.989 170.815 -51.5431 149.87 30.7311 115.374C93.4143 89.0751 140.038 57.2656 193.165 34.4772C206.392 28.8095 219.679 22.7104 233.783 17.4938C319.688 -14.4334 376.207 -25.2981 404.456 -31.5345C437.833 -38.9084 444.357 -39.8693 492.077 -25.808C525.095 -16.0023 550.252 -7.0988 569.085 -0.31328C599.907 10.9044 613.473 15.1404 634.92 29.9274C643.344 36.0496 651.342 42.7193 658.86 49.8917C694.231 81.6228 703.449 115.335 768.685 147.262C827.598 176.091 917.992 193.152 996.436 171.149C1003.18 169.187 1009.46 167.226 1015.37 164.971C1085.31 138.947 1100.48 102.215 1165.63 95.6449C1173.19 94.8952 1180.78 94.6005 1188.38 94.7624C1215.71 95.2331 1242.56 101.156 1282.14 111.02C1345.82 126.866 1391.75 147.144 1419.46 157.676C1434.98 163.603 1450.9 168.446 1467.12 172.168C1523.28 185.092 1603.7 190.407 1715 168.756" stroke="#D0D0D0" stroke-width="1.00001" stroke-miterlimit="10"/>
<path d="M-267.364 188.662C-158.098 185.269 -54.357 167.619 33.3835 131.926C99.0792 105.196 147.658 71.9743 199.747 48.2838C213.254 42.1454 226.68 35.4776 240.825 29.6726C325.992 -5.27473 382.051 -20.8461 411.717 -30.1615C445.393 -40.7124 454.231 -43.4776 500.794 -29.8673C526.509 -22.324 551.749 -13.3003 576.385 -2.84292C606.31 9.76716 618.739 15.3368 638.43 30.4963C647.029 37.1446 653.851 44.2242 661.233 51.1078C695.288 82.4859 708.196 113.864 773.313 141.869C833.003 167.619 922.639 180.837 999.647 158.99C1006.33 157.029 1012.57 155.067 1018.44 152.851C1090.4 126.356 1105.82 91.566 1168.26 85.1923C1175.76 84.4402 1183.29 84.1258 1190.83 84.251C1218.6 84.6236 1245.41 90.3305 1283.92 99.94C1345.26 115.276 1390.43 135.24 1420.13 146.478C1435.56 152.342 1451.36 157.19 1467.44 160.99C1523.08 174.208 1603.1 180.896 1713.26 162.284" stroke="#D0D0D0" stroke-width="1.00001" stroke-miterlimit="10"/>
<path d="M-268.281 197.918C-163.304 195.957 -57.2691 181.582 35.9577 144.732C104.666 117.571 155.16 82.8977 206.252 58.4424C220.057 51.8138 233.583 44.5576 247.788 38.2035C332.316 0.294853 387.937 -19.9636 419 -32.3972C452.915 -46.0271 464.047 -50.6946 509.533 -37.555C535.02 -30.1915 559.821 -20.7044 583.668 -9.19702C612.615 4.76624 623.987 11.7087 641.962 27.3977C649.942 34.3205 656.226 41.6944 663.548 48.6564C696.306 79.8384 712.924 108.51 777.882 132.809C838.391 155.44 927.248 164.853 1002.82 143.144C1009.42 141.183 1015.61 139.221 1021.47 137.045C1095.45 110.138 1111.19 77.3477 1170.84 71.2094C1178.28 70.4376 1185.76 70.0971 1193.24 70.1896C1221.41 70.425 1248.23 75.9554 1285.67 85.4472C1344.68 100.332 1389.07 119.924 1420.81 131.906C1436.13 137.696 1451.79 142.55 1467.72 146.438C1522.86 159.951 1602.5 168.011 1711.53 152.42" stroke="#D0D0D0" stroke-width="1.00001" stroke-miterlimit="10"/>
<path d="M-269.14 207.312C-168.451 206.861 -60.1624 195.682 38.5906 157.676C110.291 130.063 162.68 93.8996 212.775 68.5617C226.88 61.4036 240.546 53.5591 254.79 46.6951C338.64 5.86434 393.862 -19.0028 426.261 -34.6919C460.635 -51.3223 473.862 -57.9509 518.251 -45.282C543.553 -37.9956 567.945 -27.9441 590.969 -15.3159C618.899 -0.0386669 629.233 8.35498 645.513 24.4363C652.814 31.6532 658.6 39.2624 665.842 46.3617C697.323 77.2103 717.712 103.333 782.47 123.885C843.817 143.359 931.836 148.988 1005.91 127.455C1012.45 125.493 1018.6 123.532 1024.42 121.375C1100.41 93.9192 1116.33 63.1882 1173.35 57.0891C1180.73 56.3169 1188.15 55.9502 1195.58 55.9909C1224.19 55.9909 1250.96 61.4428 1287.35 70.7778C1344.05 85.1529 1387.64 104.431 1421.41 117.1C1436.62 122.841 1452.15 127.712 1467.94 131.691C1522.56 145.419 1601.82 154.852 1709.69 142.359" stroke="#D0D0D0" stroke-width="1.00001" stroke-miterlimit="10"/>
<path d="M-270.018 216.745C-173.599 217.765 -63.0353 209.822 41.2039 170.658C115.917 142.595 170.201 104.921 219.318 78.8186C233.682 71.1898 247.508 62.8158 261.772 55.285C344.964 11.5322 399.827 -17.9436 433.543 -36.8882C468.335 -56.4995 483.677 -65.1285 526.989 -52.9302C552.099 -45.728 576.083 -35.17 598.27 -21.5521C625.343 -4.94134 634.46 4.90354 649.044 21.377C655.687 28.9078 661.014 36.7131 668.156 43.9497C698.36 74.4845 722.48 97.9985 787.038 114.864C849.263 131.122 936.425 133.044 1009.12 111.648C1015.61 109.687 1021.71 107.726 1027.5 105.627C1105.52 77.7596 1121.66 48.9898 1175.99 43.0083C1183.31 42.2343 1190.68 41.8415 1198.05 41.8317C1227.08 41.6552 1253.91 46.9894 1289.2 56.1283C1343.55 70.0327 1386.38 88.9773 1422.17 102.352C1437.27 108.054 1452.66 112.957 1468.29 117.041C1522.42 131.122 1601.3 141.849 1708.03 132.416" stroke="#D0D0D0" stroke-width="1.00001" stroke-miterlimit="10"/>
<path d="M-270.895 226.139C-178.745 228.571 -65.8674 223.844 43.8582 183.543C121.664 155.009 177.723 115.806 225.903 88.9773C240.546 80.8189 254.511 71.9154 268.815 63.8355C351.329 17.2194 405.853 -16.8454 440.865 -39.1435C476.157 -61.6377 493.553 -72.3455 535.768 -60.6179C560.703 -53.4406 584.286 -42.3264 605.593 -27.7101C631.728 -9.82457 639.708 1.54999 652.596 18.3961C658.581 26.2406 663.389 34.2225 670.551 41.6159C699.518 71.8174 727.408 92.6054 791.728 105.902C854.83 118.904 941.114 117.159 1012.4 95.9197C1018.8 93.9585 1024.86 91.9974 1030.63 90.0363C1110.67 61.7371 1127.05 34.9285 1178.64 29.1039C1185.93 28.2888 1193.25 27.8698 1200.58 27.8488C1230.03 27.6527 1256.76 32.6928 1291.1 41.5767C1343.11 55.0104 1385.16 73.6216 1422.99 87.7025C1436.65 92.8015 1451.8 97.8416 1468.73 102.352C1522.34 116.708 1600.84 128.808 1706.42 122.415" stroke="#D0D0D0" stroke-width="1.00001" stroke-miterlimit="10"/>
<path d="M-271.773 235.258C-183.993 239.181 -68.8211 237.69 46.4306 196.271C127.149 167.266 185.144 126.494 232.405 98.9596C247.308 90.2718 261.433 80.8584 275.777 72.1902C357.692 22.7108 411.916 -15.9235 448.086 -41.5555C483.876 -67.0502 503.308 -79.7192 544.445 -68.4623C569.234 -61.3033 592.443 -49.65 612.874 -34.1032C638.111 -14.9234 644.794 -1.99949 656.106 15.18C661.432 23.3383 665.761 31.5163 672.764 39.047C700.495 68.8758 732.135 87.0555 796.195 96.7043C860.255 106.353 945.602 101.019 1015.45 79.9366C1021.79 77.9755 1027.82 76.0144 1033.54 74.0532C1115.62 45.3226 1132.23 20.4751 1181.17 14.7878C1188.38 13.9595 1195.64 13.5208 1202.9 13.4738C1232.82 13.1012 1259.48 18.0041 1292.67 26.7703C1342.37 39.7138 1383.63 58.0112 1423.49 72.7785C1437.09 77.8382 1452.11 82.8587 1468.85 87.4674C1521.94 102.097 1600.06 115.551 1704.5 112.236" stroke="#D0D0D0" stroke-width="1.00001" stroke-miterlimit="10"/>
<path d="M-272.631 244.26C-189.06 249.692 -71.7134 251.359 49.0645 208.842C132.855 179.425 192.586 136.986 238.93 108.824C254.112 99.587 268.396 89.6833 282.82 80.4267C364.097 28.0645 418.042 -15.0804 455.348 -44.164C491.717 -72.4435 513.204 -87.3089 553.104 -76.5031C579.598 -69.3253 603.657 -54.4796 620.116 -40.6928C644.475 -20.2578 650.041 -5.74542 659.597 11.7675C664.226 20.2396 668.096 28.6136 674.999 36.3012C701.513 65.7182 736.844 81.1916 800.684 87.2907C865.582 93.5467 950.111 84.6824 1018.52 63.7571C1024.78 61.796 1030.77 59.8348 1036.47 57.8737C1120.56 28.692 1137.4 5.80565 1183.59 0.275256C1190.75 -0.565377 1197.94 -1.03018 1205.15 -1.11715C1235.46 -1.68588 1262.11 3.09929 1294.37 11.689C1341.73 24.1618 1382.15 42.1258 1424.05 57.5991C1437.59 62.6 1452.49 67.6401 1469.01 72.3076C1521.6 87.2318 1599.35 102.038 1702.63 101.725" stroke="#D0D0D0" stroke-width="1.00001" stroke-miterlimit="10"/>
<path d="M-273.509 253.144C-194.207 260.066 -74.6861 264.675 51.6778 221.275C138.321 191.152 200.007 147.341 245.473 118.492C260.894 108.687 275.398 98.3122 289.782 88.4673C370.5 33.3399 424.186 -14.4725 462.63 -46.8508C499.597 -77.9936 522.919 -94.9378 561.902 -84.6222C587.458 -77.7975 611.398 -62.1673 627.478 -47.3607C650.959 -25.6706 655.188 -9.5893 663.188 8.27661C667.178 17.0625 670.55 25.5934 677.373 33.4379C702.669 62.5411 741.752 75.1708 805.353 77.8968C871.188 80.7012 954.799 68.3657 1021.77 47.5777C1027.98 45.6296 1033.92 43.6685 1039.59 41.6943C1125.73 12.1204 1142.79 -8.84408 1186.26 -14.2176C1193.36 -15.0808 1200.5 -15.5718 1207.65 -15.6884C1238.37 -16.4141 1265.02 -11.7662 1296.24 -3.37252C1341.25 8.61 1380.93 26.3386 1424.88 42.4395C1438.37 47.4208 1453.13 52.4217 1469.47 57.1676C1521.54 72.386 1598.91 88.5458 1701.05 91.3306" stroke="#D0D0D0" stroke-width="1.00001" stroke-miterlimit="10"/>
<path d="M-274.387 261.89C-199.374 270.264 -77.559 278.109 54.2912 233.571C143.947 202.997 207.448 157.499 252.017 128.082C267.677 117.747 282.341 106.863 296.785 96.4295C376.924 38.4977 430.45 -13.9038 469.892 -49.6944C507.498 -83.72 532.734 -102.821 570.54 -92.957C595.178 -86.5048 619.019 -70.0706 634.679 -54.205C657.323 -31.2598 660.216 -13.5703 666.6 4.62896C669.831 13.7482 672.844 22.4556 679.547 30.4375C703.787 59.1484 746.6 70.9152 809.941 68.2677C876.535 65.4829 959.407 51.8138 1024.96 31.1827C1031.11 29.2346 1037 27.2735 1042.64 25.2993C1130.86 -4.54916 1148.1 -23.729 1188.85 -28.9456C1195.9 -29.8159 1202.98 -30.3265 1210.08 -30.4753C1241.22 -31.3382 1267.94 -26.8668 1298.02 -18.7085C1340.61 -7.09862 1379.6 10.4143 1425.56 27.1035C1438.99 32.0456 1453.63 37.0465 1469.75 41.8709C1521.32 57.3834 1598.31 74.8963 1699.3 80.7405" stroke="#D0D0D0" stroke-width="1.00001" stroke-miterlimit="10"/>
<path d="M-275.344 270.539C-204.601 280.345 -80.5111 291.464 56.8254 245.77C149.494 214.745 214.691 167.579 258.461 137.496C274.421 126.592 289.244 115.256 303.688 104.156C383.289 43.3613 436.516 -13.5116 477.094 -52.7342C515.418 -89.6035 542.61 -110.745 579.358 -101.37C603.059 -95.2908 626.8 -78.072 642.062 -61.1475C663.867 -36.9863 665.363 -17.6888 670.251 0.824318C672.765 10.277 675.378 19.1413 681.982 27.2996C704.924 55.6184 751.288 62.6 814.51 58.5208C881.981 54.2259 963.976 35.1441 1028.1 14.6699C1034.08 12.7088 1040.07 10.7476 1045.63 8.78651C1135.87 -21.513 1153.36 -38.7513 1191.41 -43.7914C1198.39 -44.6855 1205.42 -45.2222 1212.45 -45.3996C1244.02 -46.4194 1270.63 -42.0853 1299.76 -34.0838C1340.12 -23.0427 1378.24 -5.9612 1426.22 11.5321C1439.61 16.4349 1454.15 21.3378 1470.11 26.3387C1521.16 42.0277 1597.79 60.9919 1697.54 69.8954" stroke="#D0D0D0" stroke-width="1.00001" stroke-miterlimit="10"/>
<path d="M-276.122 279.089C-209.668 290.405 -83.3243 304.721 59.5383 257.89C155.299 226.413 222.132 177.483 265.024 146.87C281.144 135.378 296.266 123.611 310.71 111.962C389.892 48.5779 442.78 -13.1585 484.276 -55.7543C523.219 -95.5849 552.206 -118.765 588.016 -109.823C610.78 -104.116 634.46 -86.1126 649.303 -68.1487C670.291 -42.654 670.351 -21.8659 673.742 -2.99985C675.478 6.80581 677.732 15.8074 684.216 24.1226C706.001 52.0491 756.036 56.0498 819.019 48.7348C887.308 40.8903 968.525 18.4353 1031.19 -1.90161C1037.17 -3.86275 1043.02 -5.82388 1048.58 -7.62812C1140.85 -38.3787 1158.55 -53.7344 1193.9 -58.6176C1200.88 -59.4988 1207.9 -60.0225 1214.93 -60.1865C1244.2 -61.2699 1273.44 -57.6261 1301.51 -49.4002C1339.54 -38.8297 1376.88 -22.0817 1426.9 -3.88236C1440.22 0.961635 1454.63 5.9233 1470.33 10.9438C1543.73 34.0332 1619.2 50.1941 1695.73 59.2073" stroke="#D0D0D0" stroke-width="1.00001" stroke-miterlimit="10"/>
<path d="M-277 287.581C-214.816 300.368 -86.1973 317.92 62.1516 269.931C160.845 238.004 229.453 187.426 271.628 156.185C458.819 17.3959 518.071 -137.612 596.814 -118.373C618.64 -113.039 642.261 -94.2514 656.665 -75.2284C687.428 -34.6329 668.036 -3.84316 686.59 20.8671C732.076 81.4661 936.684 13.7874 1051.68 -24.2389C1163.8 -61.324 1167.95 -73.2672 1217.26 -75.2284C1303.35 -78.6996 1348.09 -44.7132 1470.63 -4.62762C1543.48 19.0917 1618.22 36.8031 1694.07 48.323" stroke="#D0D0D0" stroke-width="1.00001" stroke-miterlimit="10"/>
<path d="M-277 293.19C-213.16 307.173 -88.5314 323.195 53.2938 277.266C151.189 245.476 216.885 194.408 262.151 161.559C442.979 30.4964 499.378 -111.45 579.597 -98.7815C610.939 -93.8394 642.759 -83.9357 663.767 -68.7565C705.044 -38.9081 689.702 -12.2171 713.642 11.6499C766.051 63.9337 956.894 5.237 1066.38 -29.6515C1173.03 -63.7556 1177.34 -73.4044 1229.47 -71.4433C1316.1 -68.1878 1358.81 -38.104 1474.24 0.373389C1546.26 24.3667 1620.41 41.6421 1695.73 51.9708" stroke="#D0D0D0" stroke-width="1.00001" stroke-miterlimit="10"/>
<path d="M-277 299.034C-170.534 323.126 -59.3987 318.211 44.436 284.816C141.533 253.183 204.196 201.585 252.675 167.148C426.899 43.479 481.443 -87.5246 562.4 -78.9741C603.478 -74.6204 642.101 -73.5221 670.869 -62.0495C720.226 -42.4382 710.61 -20.6696 740.695 2.66784C798.171 47.2052 977.103 -3.09789 1081.1 -34.8486C1182.11 -65.9718 1186.6 -73.5221 1241.7 -67.4426C1328.64 -57.8723 1369.52 -31.0832 1477.85 5.60955C1549.01 29.8603 1622.56 46.7007 1697.3 55.8537" stroke="#D0D0D0" stroke-width="1.00001" stroke-miterlimit="10"/>
<path d="M-277 309.428C-173.634 333.809 -65.4093 329.477 35.5981 296.916C131.877 265.42 191.528 213.293 243.199 177.287C410.46 60.7564 464.086 -45.4585 545.183 -54.617C595.917 -60.3435 640.784 -57.9902 677.991 -50.8124C734.211 -39.987 730.939 -24.5529 767.767 -1.78414C828.734 35.9088 997.352 -6.68697 1095.81 -35.496C1191.33 -63.4421 1195.78 -69.2667 1253.91 -58.9119C1341.13 -43.3797 1380.21 -19.552 1481.48 15.3758C1551.79 39.913 1624.77 56.3268 1698.94 64.2864" stroke="#D0D0D0" stroke-width="1.00001" stroke-miterlimit="10"/>
<path d="M-277 325.254C-176.742 349.911 -71.4296 346.144 26.7402 314.39C122.221 283.012 178.84 230.355 233.722 192.8C393.902 83.1918 446.969 -12.884 527.986 -24.8862C588.176 -33.7897 641.323 -47.4 685.093 -34.2015C745.323 -16.0414 747.577 -14.7863 794.819 -0.862286C851.657 41.5178 1017.58 -4.96105 1110.53 -30.7695C1200.5 -55.6759 1204.93 -59.7943 1266.14 -44.9878C1353.58 -23.8271 1390.89 -2.56847 1485.09 30.5158C1554.56 55.3314 1626.96 71.3135 1700.55 78.0733" stroke="#D0D0D0" stroke-width="1.00001" stroke-miterlimit="10"/>
<path d="M-277 341.453C-179.855 366.402 -77.4485 363.256 17.9223 332.393C112.605 301.172 166.172 247.927 224.286 208.842C377.224 105.961 429.692 19.1413 510.69 5.37412C580.515 -6.47111 638.61 -25.2588 692.236 -17.0416C761.383 -6.4515 767.507 -10.6091 821.911 0.608572C881.542 38.3211 1037.79 -2.86263 1125.15 -25.5137C1209.58 -47.3803 1214.01 -49.9886 1278.27 -30.5342C1366.05 -4.0197 1401.46 14.9837 1488.62 46.1853C1557.24 71.2812 1629.09 86.8329 1702.09 92.3896" stroke="#D0D0D0" stroke-width="1.00001" stroke-miterlimit="10"/>
<path d="M-277 357.966C-182.99 383.157 -83.5174 380.599 9.02456 350.612C102.91 319.528 153.383 265.695 214.77 225.099C360.406 128.788 412.276 50.7548 493.573 35.8501C572.834 21.3182 636.934 9.39446 699.298 0.314421C776.305 -10.9033 787.358 -6.25537 848.924 2.27555C911.447 35.4383 1058 -0.470027 1139.96 -20.0421C1218.84 -38.869 1223.27 -40.0849 1290.58 -15.8649C1378.52 15.7878 1412.17 32.83 1492.23 62.0901C1560.02 87.4566 1631.32 102.579 1703.71 106.941" stroke="#D0D0D0" stroke-width="1.00001" stroke-miterlimit="10"/>
<path d="M-277 374.695C-202.726 395.816 -102.437 402.935 0.186664 369.066C93.3337 338.316 140.635 283.659 205.294 241.593C343.488 151.694 394.82 82.1525 476.356 66.5615C565.253 49.5781 635.956 32.9673 706.42 17.9058C790.809 -0.156204 809.163 -12.7663 875.996 4.1779C945.243 21.73 1078.21 2.21677 1154.66 -14.3352C1228 -30.1419 1232.46 -30.0243 1302.79 -0.979883C1391.17 35.6345 1422.81 50.9509 1495.95 78.2106C1541.41 95.1548 1610 117.316 1705.42 121.709" stroke="#D0D0D0" stroke-width="1.00001" stroke-miterlimit="10"/>
<path d="M-277 391.717C-200.99 413.996 -104.771 419.624 -8.67118 387.795C83.6778 357.201 127.847 301.839 195.817 258.36C326.471 174.757 377.064 113.511 459.159 97.5474C557.712 78.3675 635.158 56.9324 713.522 35.7717C805.512 10.9242 828.475 -7.98112 903.048 6.35476C974.13 20.0827 1098.4 5.02119 1169.38 -8.35373C1237.21 -21.1403 1241.84 -19.9636 1315.02 14.1993C1403.84 55.638 1433.4 69.4248 1499.56 94.6057C1544.36 111.668 1611.94 133.828 1707.04 136.77" stroke="#D0D0D0" stroke-width="1.00001" stroke-miterlimit="10"/>
<path d="M-277 408.936C-199.195 432.47 -107.105 436.51 -17.529 406.74C74.022 376.303 115.019 320.214 186.341 275.344C309.393 197.918 359.308 144.889 441.942 128.749C550.251 107.588 634.46 81.172 720.625 53.8535C820.375 22.24 847.807 -2.52909 930.101 8.74743C1003.12 18.7492 1118.59 8.13947 1184.09 -2.15647C1246.29 -11.9621 1251.22 -9.70684 1327.23 29.5943C1416.6 75.7789 1443.98 88.1733 1503.17 111.217C1547.34 128.416 1613.85 150.655 1708.65 152.028" stroke="#D0D0D0" stroke-width="1.00001" stroke-miterlimit="10"/>
<path d="M-277 426.41C-197.539 451.061 -109.419 453.63 -26.3869 425.919C64.3662 395.62 102.152 338.747 176.865 292.562C292.236 221.216 340.116 166.834 424.745 160.186C544.725 150.753 633.822 105.666 727.727 72.1703C835.318 33.8106 871.368 -16.0806 957.153 11.3752C1028.81 34.3793 1138.7 11.3752 1198.81 4.27592C1255.43 -2.48998 1260.65 0.706659 1339.46 45.2048C1429.45 96.0569 1454.51 107.235 1506.78 128.063C1550.29 145.419 1615.79 167.677 1710.27 167.54" stroke="#D0D0D0" stroke-width="1.00001" stroke-miterlimit="10"/>
<path d="M-277 444.452C-195.803 470.3 -111.753 471.28 -35.2247 445.786C54.7103 415.623 89.2439 357.888 167.388 310.468C275.119 245.103 322.341 200.311 407.528 192.309C537.203 180.092 633.263 130.867 734.849 91.1738C850.36 46.0677 889.203 -7.09856 984.225 14.6896C1059.6 31.9868 1158.95 15.4348 1213.51 11.3949C1264.56 7.60993 1270.25 11.7283 1351.67 61.5215C1442.38 116.982 1465.04 127.043 1510.41 145.595C1553.24 163.128 1617.72 185.367 1711.91 183.72" stroke="#D0D0D0" stroke-width="1.00001" stroke-miterlimit="10"/>
<path d="M-277 463.632C-194.087 490.676 -114.107 490.146 -44.0826 466.573C45.0544 436.548 76.2764 377.871 157.912 329.294C257.782 269.852 304.545 234.709 390.331 225.354C529.742 210.155 632.744 157.009 741.951 111.118C865.482 59.207 907.537 3.88342 1011.28 18.9449C1090.16 30.3979 1179.1 20.3177 1228.23 19.4352C1273.68 18.6115 1279.89 23.632 1363.9 78.7594C1455.37 138.79 1475.62 147.85 1514.02 164.069C1556.17 181.837 1619.76 203.997 1713.52 200.84" stroke="#D0D0D0" stroke-width="1.00001" stroke-miterlimit="10"/>
<path d="M-277 483.145C-192.352 511.385 -116.442 509.307 -52.9404 487.813C35.3986 457.905 63.249 398.169 148.436 348.572C240.506 294.955 286.69 269.519 373.114 258.85C522.181 240.455 632.266 183.582 749.054 131.494C880.724 72.7978 926.33 16.121 1038.33 23.6322C1120.52 29.143 1199.27 25.5933 1242.94 27.9271C1282.76 30.0255 1289.58 35.9089 1376.11 96.449C1468.45 161.029 1485.99 169.266 1517.63 182.994C1559.07 201.056 1621.57 223.099 1715.14 218.412" stroke="#D0D0D0" stroke-width="1.00001" stroke-miterlimit="10"/>
<path d="M-277 504.384C-190.616 533.801 -118.836 530.075 -61.7983 510.758C25.6829 480.792 50.1217 420.016 138.96 369.556C223.189 321.705 268.815 306.016 355.917 294.053C514.56 272.265 631.827 211.881 756.076 153.577C895.727 88.0947 945.981 38.9683 1065.3 30.0255C1150.33 23.6715 1219.34 32.575 1257.58 38.125C1291.84 43.1063 1299.28 49.8918 1388.25 115.825C1481.5 184.975 1496.34 192.309 1521.16 203.586C1561.82 222.079 1623.43 243.867 1716.67 237.67" stroke="#D0D0D0" stroke-width="1.00001" stroke-miterlimit="10"/>
<path d="M-277 525.408C-188.9 556.021 -121.17 550.765 -70.6362 533.507C16.0271 503.678 36.8749 441.452 129.483 390.345C205.852 348.2 250.9 342.297 338.7 329.059C506.899 303.702 631.408 239.965 763.278 175.483C911.088 103.176 966.071 49.9704 1092.45 36.2424C1180.24 26.7505 1239.63 39.243 1272.36 48.1269C1301.07 55.9714 1309.19 63.6198 1400.54 135.025C1494.79 208.685 1506.8 215.294 1524.87 224.021C1564.61 243.201 1625.44 264.44 1718.39 256.733" stroke="#D0D0D0" stroke-width="1.00001" stroke-miterlimit="10"/>
<path d="M-277 546.45C-187.225 578.24 -123.384 571.474 -79.494 556.256C6.29139 526.565 23.4884 462.573 120.007 411.132C188.516 374.616 232.964 378.578 321.503 364.065C499.159 334.942 631.009 267.97 770.38 197.369C926.35 118.257 986.22 60.8937 1119.51 42.4395C1210.38 29.8686 1259.9 45.8126 1287.09 58.1285C1310.29 68.6402 1319.01 77.328 1412.77 154.224C1508.04 232.414 1517.11 238.357 1528.48 244.436C1566.93 265.008 1627.36 285.032 1720 275.814" stroke="#D0D0D0" stroke-width="1.00001" stroke-miterlimit="10"/>
</g>
<defs>
<clipPath id="clip0_13_947">
<rect width="1655" height="639" fill="white"/>
</clipPath>
</defs>
</svg>
