<svg width="180" height="180" viewBox="0 0 180 180" fill="none" xmlns="http://www.w3.org/2000/svg">
<path d="M78.2853 151.678L80.5531 152.244L73.5114 163L70.8885 162.345L69.6665 149.527L71.9343 150.093L72.7514 160.244L72.8431 160.267L78.2853 151.678ZM77.0688 156.281L70.8838 154.737L71.3077 153.022L77.4926 154.566L77.0688 156.281Z" fill="white"/>
<path d="M58.8111 154.649L58.7288 150.818L55.5378 152.942L53.5319 151.895L58.0444 149.118L57.6652 143.789L59.6606 144.83L59.8596 148.628L63.0492 146.597L65.0604 147.646L60.5217 150.41L60.8223 155.698L58.8111 154.649Z" fill="white"/>
<path d="M50.3602 138.162C51.0578 138.747 51.5394 139.398 51.8048 140.115C52.0647 140.833 52.1074 141.574 51.9331 142.339C51.7562 143.108 51.3641 143.857 50.7566 144.589C50.1592 145.308 49.499 145.825 48.776 146.141C48.0474 146.457 47.311 146.56 46.5666 146.45C45.8198 146.344 45.1141 146.012 44.4497 145.455C44.0208 145.095 43.6741 144.686 43.4095 144.227C43.1393 143.769 42.9775 143.273 42.924 142.739C42.8675 142.202 42.94 141.64 43.1414 141.052C43.3402 140.467 43.6943 139.868 44.2034 139.255L44.6231 138.749L50.3267 143.533L49.4042 144.644L45.2726 141.179C45.0134 141.497 44.8482 141.835 44.777 142.192C44.7032 142.552 44.7263 142.904 44.8464 143.247C44.9635 143.587 45.1791 143.889 45.4932 144.152C45.8285 144.433 46.191 144.598 46.5808 144.647C46.9681 144.699 47.3424 144.653 47.7036 144.508C48.0593 144.363 48.3685 144.136 48.6311 143.826L49.4365 142.856C49.7742 142.449 49.9901 142.038 50.0841 141.623C50.1756 141.21 50.1527 140.815 50.0155 140.437C49.8757 140.063 49.6277 139.726 49.2713 139.427C49.0327 139.227 48.789 139.079 48.5403 138.984C48.289 138.892 48.037 138.853 47.7841 138.867C47.5313 138.882 47.2867 138.957 47.0503 139.094L45.6628 137.636C46.0972 137.311 46.5763 137.11 47.1002 137.035C47.6186 136.96 48.157 137.015 48.7154 137.2C49.2713 137.388 49.8196 137.709 50.3602 138.162Z" fill="white"/>
<path d="M37.2964 123.493L38.4117 125.557L25.7617 127.596L24.4718 125.209L33.0579 115.651L34.1732 117.714L27.272 125.172L27.3171 125.256L37.2964 123.493ZM33.096 125.698L30.0544 120.07L31.5996 119.227L34.6413 124.855L33.096 125.698Z" fill="white"/>
<path d="M26.0076 105.768L20.9271 107.105L20.3861 105.028L29.1542 102.721L29.6788 104.735L28.1204 105.145L28.1443 105.237C28.687 105.306 29.1737 105.528 29.6043 105.901C30.0339 106.27 30.3349 106.785 30.5072 107.447C30.6577 108.024 30.6632 108.569 30.5238 109.079C30.3796 109.587 30.0944 110.03 29.6682 110.408C29.2383 110.786 28.6732 111.068 27.9729 111.252L22.3901 112.721L21.8492 110.644L27.1123 109.26C27.6679 109.113 28.0695 108.844 28.3171 108.452C28.5647 108.06 28.6237 107.616 28.4942 107.118C28.4145 106.812 28.2631 106.536 28.0399 106.288C27.8168 106.04 27.5348 105.863 27.1939 105.756C26.8483 105.647 26.4528 105.651 26.0076 105.768Z" fill="white"/>
<path d="M19.0525 92.9041L20.7014 92.7978L21.035 98.0231L19.3861 98.1294L19.0525 92.9041ZM17.1368 96.9791L17 94.8369L25.4914 94.2894C25.778 94.2709 25.9951 94.2134 26.1426 94.1167C26.286 94.0163 26.3805 93.8914 26.4262 93.7419C26.4718 93.5924 26.489 93.4289 26.4776 93.2513C26.4691 93.1172 26.4515 92.9955 26.4248 92.8863C26.3978 92.7732 26.3746 92.6875 26.3552 92.6294L27.9986 92.1609C28.0452 92.2728 28.0988 92.4338 28.1595 92.6438C28.22 92.8498 28.2638 93.1045 28.2911 93.4077C28.341 93.9433 28.2914 94.4317 28.1422 94.8731C27.9891 95.3148 27.7321 95.674 27.3714 95.9508C27.0104 96.2237 26.5471 96.3763 25.9815 96.4088L17.1368 96.9791Z" fill="white"/>
<path d="M28.795 83.0608C28.6821 83.943 28.3911 84.6826 27.922 85.2797C27.453 85.8767 26.8484 86.3088 26.1082 86.5758C25.3685 86.8389 24.5344 86.9105 23.6058 86.7905C22.6772 86.6705 21.8863 86.3889 21.233 85.9457C20.5803 85.4987 20.1022 84.9267 19.7987 84.2298C19.4952 83.5329 19.3999 82.7434 19.5128 81.8612C19.6257 80.979 19.9167 80.2393 20.3858 79.6423C20.8548 79.0453 21.4611 78.6154 22.2047 78.3528C22.9488 78.0863 23.7851 78.013 24.7137 78.133C25.6423 78.253 26.431 78.5363 27.0799 78.9829C27.7292 79.4255 28.2056 79.9953 28.5091 80.6922C28.8126 81.389 28.9079 82.1786 28.795 83.0608ZM27.0992 82.8297C27.1605 82.3513 27.0809 81.9345 26.8607 81.5792C26.6365 81.2234 26.312 80.9383 25.8873 80.724C25.4631 80.5058 24.9779 80.3613 24.4316 80.2907C23.8815 80.2196 23.3737 80.2357 22.9084 80.339C22.4396 80.4378 22.052 80.6309 21.7455 80.9181C21.4391 81.2053 21.2552 81.5881 21.194 82.0665C21.1313 82.5566 21.2118 82.9815 21.4354 83.3413C21.6596 83.6971 21.9857 83.9843 22.4139 84.2031C22.8386 84.4174 23.326 84.5601 23.8762 84.6312C24.4224 84.7018 24.928 84.6875 25.3928 84.5881C25.8582 84.4848 26.2441 84.2896 26.5506 84.0023C26.8536 83.7107 27.0365 83.3198 27.0992 82.8297Z" fill="white"/>
<path d="M30.271 73.4192L21.8811 69.9732L22.6535 68.074L24.0792 68.6596L24.1194 68.5608C23.7101 68.1877 23.4534 67.7427 23.3491 67.2258C23.2412 66.7075 23.3019 66.1665 23.531 65.603C23.7632 65.0321 24.0973 64.6077 24.5333 64.3298C24.9672 64.0468 25.4535 63.922 25.9924 63.9554L26.0281 63.8676C25.6379 63.4895 25.3945 63.0222 25.2978 62.4658C25.199 61.9042 25.2739 61.3178 25.5224 60.7067C25.8379 59.9309 26.3394 59.398 27.0268 59.1081C27.7141 58.8181 28.5258 58.8654 29.4616 59.2497L35.0931 61.5628L34.2827 63.5553L28.9571 61.3679C28.4364 61.154 27.9993 61.1368 27.6458 61.3162C27.2888 61.4941 27.0284 61.7843 26.8646 62.1869C26.6697 62.6662 26.6664 63.1027 26.8549 63.4961C27.0412 63.8844 27.371 64.1757 27.8444 64.3702L33.0772 66.5194L32.2847 68.468L26.8771 66.247C26.4438 66.069 26.0443 66.0587 25.6786 66.216C25.3144 66.3696 25.0467 66.6568 24.8755 67.0776C24.7594 67.3631 24.7266 67.6528 24.777 67.9468C24.8238 68.2394 24.95 68.509 25.1556 68.7558C25.3576 69.001 25.6315 69.1947 25.9775 69.3368L31.0791 71.4322L30.271 73.4192Z" fill="white"/>
<path d="M39.8759 54.7844C39.5292 55.2446 39.1354 55.597 38.6945 55.8416C38.2528 56.0807 37.7897 56.1845 37.3052 56.153C36.8231 56.1184 36.3452 55.9209 35.8716 55.5606C35.4639 55.2503 35.1838 54.9181 35.0312 54.564C34.8786 54.2099 34.8209 53.8412 34.858 53.4579C34.8952 53.0746 34.9965 52.688 35.1619 52.2982C35.3266 51.9028 35.5231 51.5143 35.7514 51.1327C36.0281 50.6738 36.2489 50.2989 36.4139 50.0079C36.5757 49.7145 36.6641 49.4793 36.6791 49.3023C36.6933 49.1197 36.6189 48.9664 36.4558 48.8423L36.4276 48.8208C36.0732 48.5511 35.7192 48.4479 35.3657 48.5111C35.0121 48.5743 34.6857 48.8045 34.3865 49.2016C34.0707 49.6208 33.9111 50.0225 33.9078 50.4067C33.9068 50.7878 33.9982 51.1152 34.1818 51.3888L32.752 52.8149C32.4079 52.3547 32.1977 51.8675 32.1214 51.3532C32.0419 50.8365 32.0864 50.3125 32.2548 49.7812C32.4201 49.2475 32.694 48.7269 33.0763 48.2195C33.3399 47.8696 33.6431 47.5524 33.9858 47.2678C34.3286 46.9831 34.7021 46.769 35.1064 46.6254C35.5075 46.4794 35.9333 46.4414 36.3838 46.5115C36.8367 46.5784 37.3031 46.7944 37.7829 47.1595L42.6189 50.8394L41.3793 52.4846L40.3867 51.7293L40.344 51.786C40.4663 52.0428 40.5441 52.3325 40.5772 52.6552C40.6096 52.9724 40.5723 53.3134 40.4652 53.6782C40.3573 54.0375 40.1609 54.4062 39.8759 54.7844ZM38.9594 53.3878C39.2183 53.0443 39.3752 52.6952 39.4304 52.3404C39.4823 51.9833 39.4465 51.651 39.3228 51.3437C39.2015 51.0332 39.0075 50.7765 38.7409 50.5737L37.8895 49.9258C37.893 50.0127 37.8649 50.1352 37.8052 50.293C37.7478 50.4477 37.6739 50.6146 37.5834 50.7937C37.4929 50.9727 37.4004 51.1478 37.306 51.319C37.2116 51.4901 37.1295 51.6384 37.0597 51.7638C36.9018 52.0453 36.7861 52.3168 36.7125 52.5781C36.639 52.8395 36.6288 53.0822 36.6821 53.3062C36.7322 53.5278 36.867 53.7221 37.0866 53.8892C37.4002 54.1278 37.7237 54.193 38.057 54.0846C38.3903 53.9762 38.6911 53.744 38.9594 53.3878Z" fill="white"/>
<path d="M44.3633 36.3747L45.466 37.6112L41.5859 41.1058L40.4832 39.8694L44.3633 36.3747ZM39.9919 37.3815L41.5825 35.9489L47.2615 42.3165C47.4532 42.5314 47.6324 42.6673 47.7993 42.7241C47.9664 42.7752 48.1226 42.7726 48.2677 42.7162C48.4129 42.6598 48.5514 42.5722 48.6832 42.4535C48.7828 42.3638 48.867 42.2746 48.9359 42.186C49.0078 42.0948 49.0604 42.0235 49.0938 41.9722L50.4764 42.9804C50.4177 43.0864 50.325 43.2283 50.1983 43.4061C50.0746 43.5812 49.9025 43.7734 49.6822 43.9824C49.2943 44.353 48.8816 44.6159 48.4442 44.771C48.0041 44.9232 47.5643 44.9424 47.1248 44.8286C46.6881 44.7122 46.2823 44.4407 45.9071 44.0142L39.9919 37.3815Z" fill="white"/>
<path d="M54.7495 39.911L49.7665 32.3028L51.5508 31.1226L56.5338 38.7308L54.7495 39.911ZM49.9563 30.6297C49.6737 30.8166 49.3689 30.8833 49.0419 30.8298C48.7128 30.7731 48.4606 30.6109 48.2854 30.3435C48.1081 30.0727 48.0596 29.7758 48.1401 29.4528C48.2183 29.1265 48.3988 28.87 48.6814 28.683C48.9673 28.4939 49.2731 28.4289 49.599 28.4878C49.926 28.5413 50.1782 28.7034 50.3556 28.9742C50.5307 29.2417 50.5792 29.5385 50.5009 29.8648C50.4237 30.1856 50.2422 30.4406 49.9563 30.6297Z" fill="white"/>
<path d="M65.5201 34.1668C64.7058 34.5152 63.9237 34.6372 63.1739 34.5326C62.4242 34.428 61.7474 34.1225 61.1438 33.616C60.5437 33.1079 60.0603 32.4211 59.6935 31.5554C59.3268 30.6897 59.1683 29.8617 59.2182 29.0712C59.2717 28.2792 59.5208 27.5754 59.9655 26.9598C60.4101 26.3442 61.0396 25.8621 61.854 25.5137C62.6683 25.1652 63.4504 25.0433 64.2002 25.1479C64.95 25.2524 65.6256 25.5605 66.2272 26.0722C66.8325 26.5824 67.3184 27.2703 67.6852 28.136C68.052 29.0016 68.2078 29.8287 68.1528 30.617C68.1013 31.4038 67.8533 32.1051 67.4086 32.7207C66.964 33.3363 66.3345 33.8183 65.5201 34.1668ZM64.8606 32.5799C65.3022 32.391 65.6198 32.1112 65.8133 31.7405C66.0053 31.3661 66.0859 30.9407 66.055 30.4641C66.0277 29.9859 65.9062 29.4923 65.6904 28.983C65.4731 28.4702 65.2024 28.0382 64.8784 27.687C64.5564 27.3307 64.1946 27.0923 63.793 26.972C63.3914 26.8516 62.9698 26.8859 62.5283 27.0749C62.0758 27.2685 61.7518 27.5532 61.5562 27.9291C61.3642 28.3034 61.2826 28.7314 61.3114 29.2132C61.3423 29.6898 61.4664 30.1845 61.6837 30.6974C61.8994 31.2066 62.1675 31.6376 62.488 31.9903C62.8121 32.3414 63.1749 32.5772 63.5765 32.6975C63.9802 32.8127 64.4082 32.7735 64.8606 32.5799Z" fill="white"/>
<path d="M75.8148 25.1129L76.7634 30.364L74.6617 30.7474L73.0427 21.7856L75.0515 21.4191L75.3266 22.9419L75.4312 22.9229C75.5456 22.3837 75.8007 21.9253 76.1963 21.5478C76.5957 21.1695 77.1283 20.9197 77.7941 20.7982C78.4095 20.686 78.9694 20.7204 79.474 20.9016C79.9823 21.0821 80.4076 21.4002 80.7499 21.8561C81.096 22.3113 81.3317 22.897 81.4572 23.6134L82.488 29.3196L80.3863 29.703L79.4145 24.3236C79.3062 23.7246 79.0668 23.2841 78.696 23.0022C78.3291 22.7196 77.8747 22.6277 77.3328 22.7266C76.9651 22.7937 76.6528 22.935 76.3959 23.1507C76.1421 23.3617 75.9614 23.6337 75.8536 23.9668C75.7497 24.2991 75.7368 24.6812 75.8148 25.1129Z" fill="white"/>
<path d="M98.2183 29.5273L95.9273 29.065L102.478 18L105.127 18.5347L106.925 31.2842L104.634 30.822L103.361 20.7185L103.268 20.6998L98.2183 29.5273ZM99.2263 24.874L105.474 26.1348L105.128 27.8673L98.8802 26.6065L99.2263 24.874Z" fill="white"/>
<path d="M117.539 25.6743L117.794 29.4977L120.886 27.231L122.937 28.185L118.554 31.1647L119.173 36.4707L117.132 35.5217L116.763 31.7363L113.668 33.9102L111.611 32.9538L116.021 29.9865L115.483 24.7178L117.539 25.6743Z" fill="white"/>
<path d="M126.724 41.7598C126 41.207 125.49 40.5785 125.193 39.8744C124.901 39.1695 124.825 38.4309 124.964 37.6586C125.106 36.8831 125.464 36.1162 126.038 35.3579C126.603 34.6121 127.239 34.0653 127.947 33.7175C128.661 33.3689 129.392 33.2323 130.14 33.3077C130.891 33.38 131.611 33.6794 132.3 34.2059C132.744 34.5458 133.109 34.9388 133.394 35.3851C133.685 35.8306 133.869 36.3189 133.946 36.85C134.027 37.3834 133.98 37.9484 133.805 38.545C133.633 39.1384 133.306 39.7529 132.825 40.3885L132.428 40.9124L126.515 36.3929L127.387 35.2413L131.67 38.5151C131.915 38.1855 132.065 37.8406 132.12 37.4804C132.177 37.1171 132.138 36.767 132.003 36.43C131.871 36.0955 131.642 35.8038 131.316 35.5549C130.968 35.2892 130.599 35.1408 130.207 35.1097C129.818 35.0755 129.446 35.139 129.092 35.3003C128.743 35.4608 128.444 35.7019 128.196 36.0236L127.435 37.0289C127.116 37.4505 126.919 37.871 126.844 38.2904C126.771 38.7066 126.811 39.1002 126.966 39.4713C127.122 39.8392 127.385 40.1644 127.754 40.4468C128.002 40.6358 128.252 40.7723 128.505 40.8562C128.76 40.937 129.013 40.9645 129.265 40.9385C129.517 40.9125 129.758 40.826 129.988 40.6789L131.44 42.0716C131.021 42.4166 130.551 42.6388 130.031 42.7381C129.517 42.8366 128.976 42.8061 128.41 42.6465C127.846 42.4837 127.284 42.1882 126.724 41.7598Z" fill="white"/>
<path d="M140.434 55.8198L139.227 53.8091L151.772 51.1969L153.168 53.5224L145.021 63.4615L143.814 61.4508L150.372 53.6867L150.324 53.6055L140.434 55.8198ZM144.531 53.4262L147.823 58.9099L146.317 59.8227L143.025 54.339L144.531 53.4262Z" fill="white"/>
<path d="M152.51 73.0135L157.525 71.4473L158.159 73.4973L149.504 76.2002L148.889 74.2126L150.427 73.7322L150.399 73.6416C149.854 73.5966 149.358 73.3976 148.911 73.0446C148.465 72.6953 148.141 72.1941 147.939 71.541C147.763 70.971 147.733 70.4277 147.849 69.9112C147.97 69.3972 148.235 68.9419 148.644 68.5452C149.057 68.1473 149.608 67.8404 150.3 67.6246L155.811 65.9035L156.444 67.9534L151.249 69.5759C150.701 69.7472 150.311 70.0343 150.082 70.4372C149.852 70.8401 149.813 71.2869 149.965 71.7777C150.058 72.0797 150.222 72.3494 150.456 72.5868C150.69 72.8242 150.98 72.9883 151.325 73.0792C151.675 73.1727 152.07 73.1508 152.51 73.0135Z" fill="white"/>
<path d="M160.037 85.5483L158.394 85.7295L157.826 80.5247L159.468 80.3435L160.037 85.5483ZM161.767 81.3904L162 83.5242L153.542 84.4572C153.256 84.4886 153.042 84.556 152.899 84.6593C152.76 84.7661 152.672 84.8952 152.633 85.0466C152.594 85.198 152.584 85.3622 152.603 85.539C152.618 85.6726 152.641 85.7934 152.673 85.9012C152.705 86.013 152.732 86.0975 152.754 86.1548L151.133 86.6974C151.082 86.5878 151.021 86.4295 150.951 86.2224C150.881 86.0193 150.826 85.7669 150.785 85.4652C150.711 84.9325 150.738 84.4423 150.868 83.9945C151.001 83.5464 151.241 83.1758 151.589 82.8829C151.937 82.5939 152.393 82.4204 152.957 82.3622L161.767 81.3904Z" fill="white"/>
<path d="M150.747 95.8244C150.821 94.938 151.078 94.1859 151.52 93.5681C151.961 92.9504 152.546 92.4913 153.273 92.1909C154 91.8944 154.83 91.785 155.763 91.8627C156.696 91.9403 157.499 92.1857 158.172 92.5987C158.844 93.0156 159.347 93.5652 159.682 94.2476C160.016 94.93 160.147 95.7144 160.074 96.6008C160.001 97.4873 159.744 98.2394 159.302 98.8571C158.86 99.4749 158.274 99.9318 157.543 100.228C156.812 100.528 155.979 100.639 155.046 100.562C154.113 100.484 153.313 100.237 152.644 99.8202C151.976 99.4075 151.474 98.86 151.14 98.1776C150.805 97.4953 150.674 96.7109 150.747 95.8244ZM152.452 95.9782C152.412 96.4589 152.51 96.8717 152.746 97.2166C152.986 97.5618 153.323 97.8319 153.757 98.0267C154.191 98.2254 154.682 98.3476 155.231 98.3933C155.784 98.4393 156.29 98.4001 156.751 98.2758C157.214 98.1558 157.593 97.9453 157.886 97.6444C158.179 97.3436 158.346 96.9528 158.385 96.4722C158.426 95.9797 158.326 95.5589 158.087 95.2097C157.847 94.8644 157.508 94.5923 157.071 94.3932C156.637 94.1984 156.143 94.078 155.591 94.032C155.042 93.9863 154.537 94.0236 154.077 94.144C153.617 94.2684 153.24 94.4809 152.947 94.7818C152.658 95.0869 152.492 95.4857 152.452 95.9782Z" fill="white"/>
<path d="M149.707 105.523L158.243 108.584L157.557 110.517L156.106 109.997L156.071 110.097C156.496 110.451 156.773 110.884 156.9 111.396C157.031 111.909 156.995 112.452 156.792 113.025C156.585 113.606 156.271 114.045 155.848 114.343C155.427 114.645 154.947 114.792 154.407 114.783L154.375 114.872C154.782 115.232 155.046 115.688 155.168 116.239C155.292 116.796 155.243 117.385 155.023 118.007C154.742 118.796 154.265 119.351 153.592 119.672C152.918 119.993 152.105 119.983 151.153 119.641L145.423 117.587L146.143 115.559L151.562 117.503C152.092 117.692 152.529 117.69 152.874 117.495C153.223 117.301 153.47 116.999 153.615 116.589C153.788 116.102 153.772 115.665 153.566 115.281C153.362 114.902 153.02 114.625 152.538 114.453L147.214 112.544L147.918 110.561L153.42 112.534C153.861 112.692 154.26 112.684 154.619 112.51C154.976 112.34 155.23 112.041 155.382 111.613C155.485 111.323 155.505 111.032 155.441 110.74C155.381 110.45 155.243 110.187 155.027 109.949C154.814 109.714 154.532 109.533 154.18 109.406L148.989 107.545L149.707 105.523Z" fill="white"/>
<path d="M140.95 124.576C141.276 124.1 141.653 123.73 142.083 123.466C142.513 123.207 142.971 123.082 143.457 123.092C143.94 123.104 144.426 123.28 144.916 123.618C145.337 123.91 145.632 124.229 145.8 124.576C145.968 124.922 146.043 125.288 146.023 125.673C146.003 126.057 145.919 126.448 145.771 126.845C145.625 127.247 145.446 127.645 145.235 128.036C144.979 128.507 144.775 128.892 144.624 129.19C144.475 129.49 144.398 129.729 144.391 129.907C144.385 130.09 144.466 130.24 144.634 130.356L144.664 130.376C145.03 130.63 145.388 130.717 145.738 130.638C146.089 130.558 146.404 130.314 146.685 129.903C146.982 129.47 147.123 129.062 147.109 128.678C147.093 128.297 146.987 127.974 146.791 127.709L148.156 126.219C148.52 126.663 148.752 127.141 148.851 127.651C148.954 128.163 148.933 128.689 148.789 129.227C148.648 129.768 148.398 130.3 148.038 130.825C147.791 131.186 147.502 131.517 147.173 131.817C146.843 132.117 146.48 132.348 146.082 132.51C145.688 132.674 145.264 132.731 144.811 132.681C144.356 132.635 143.88 132.441 143.384 132.098L138.388 128.641L139.552 126.942L140.578 127.651L140.618 127.592C140.484 127.341 140.393 127.055 140.346 126.735C140.299 126.419 140.321 126.077 140.411 125.708C140.503 125.344 140.683 124.966 140.95 124.576ZM141.929 125.929C141.686 126.284 141.544 126.64 141.505 126.997C141.47 127.356 141.52 127.686 141.658 127.988C141.793 128.292 141.998 128.54 142.274 128.731L143.153 129.339C143.146 129.252 143.169 129.129 143.221 128.968C143.271 128.811 143.338 128.641 143.42 128.458C143.502 128.275 143.587 128.096 143.674 127.921C143.76 127.745 143.836 127.594 143.9 127.465C144.045 127.177 144.148 126.9 144.21 126.636C144.271 126.371 144.271 126.129 144.207 125.907C144.147 125.688 144.004 125.5 143.777 125.343C143.453 125.119 143.127 125.069 142.799 125.192C142.471 125.316 142.181 125.561 141.929 125.929Z" fill="white"/>
<path d="M137.296 143.17L136.139 141.985L139.858 138.318L141.015 139.503L137.296 143.17ZM141.618 141.966L140.093 143.469L134.134 137.367C133.932 137.161 133.747 137.033 133.578 136.984C133.409 136.94 133.253 136.95 133.11 137.013C132.968 137.076 132.834 137.17 132.707 137.294C132.612 137.388 132.532 137.481 132.467 137.573C132.399 137.667 132.35 137.741 132.319 137.794L130.892 136.849C130.946 136.741 131.032 136.595 131.151 136.412C131.267 136.231 131.43 136.031 131.64 135.812C132.011 135.425 132.412 135.143 132.842 134.968C133.274 134.796 133.713 134.757 134.157 134.851C134.599 134.947 135.016 135.2 135.41 135.609L141.618 141.966Z" fill="white"/>
<path d="M126.761 140.11L132.082 147.484L130.352 148.744L125.032 141.37L126.761 140.11ZM131.967 149.164C132.241 148.964 132.543 148.884 132.872 148.922C133.203 148.964 133.462 149.115 133.65 149.374C133.839 149.636 133.901 149.931 133.835 150.257C133.771 150.587 133.603 150.851 133.329 151.051C133.052 151.253 132.749 151.331 132.421 151.287C132.092 151.249 131.832 151.098 131.643 150.836C131.456 150.577 131.394 150.282 131.458 149.953C131.52 149.629 131.69 149.366 131.967 149.164Z" fill="white"/>
<path d="M116.261 146.338C117.059 145.953 117.835 145.796 118.588 145.866C119.342 145.936 120.032 146.211 120.658 146.689C121.28 147.17 121.794 147.834 122.199 148.682C122.604 149.53 122.8 150.35 122.786 151.142C122.768 151.936 122.551 152.65 122.134 153.285C121.718 153.92 121.111 154.43 120.313 154.816C119.515 155.201 118.739 155.358 117.986 155.288C117.232 155.217 116.543 154.94 115.919 154.456C115.291 153.974 114.775 153.309 114.37 152.461C113.964 151.613 113.771 150.794 113.791 150.004C113.807 149.215 114.023 148.504 114.439 147.869C114.856 147.233 115.463 146.723 116.261 146.338ZM116.991 147.893C116.559 148.102 116.254 148.396 116.077 148.775C115.902 149.158 115.841 149.587 115.893 150.061C115.942 150.538 116.086 151.025 116.324 151.524C116.564 152.027 116.854 152.446 117.194 152.782C117.531 153.123 117.904 153.345 118.31 153.447C118.717 153.549 119.136 153.495 119.569 153.287C120.012 153.073 120.323 152.774 120.502 152.389C120.677 152.006 120.739 151.575 120.688 151.095C120.636 150.62 120.49 150.132 120.25 149.629C120.011 149.131 119.724 148.712 119.388 148.374C119.048 148.038 118.675 147.819 118.269 147.717C117.86 147.621 117.434 147.679 116.991 147.893Z" fill="white"/>
<path d="M106.384 155.851L105.2 150.648L107.282 150.17L109.303 159.049L107.313 159.506L106.969 157.997L106.866 158.021C106.776 158.565 106.542 159.034 106.164 159.429C105.781 159.825 105.261 160.099 104.601 160.251C103.991 160.391 103.43 160.382 102.918 160.224C102.402 160.067 101.963 159.768 101.601 159.329C101.234 158.89 100.973 158.315 100.815 157.605L99.5284 151.952L101.611 151.473L102.824 156.803C102.959 157.396 103.218 157.825 103.601 158.09C103.98 158.356 104.438 158.427 104.975 158.304C105.339 158.22 105.645 158.064 105.892 157.837C106.136 157.615 106.304 157.335 106.397 156.997C106.486 156.661 106.481 156.278 106.384 155.851Z" fill="white"/>
</svg>
